<svg width="1440" height="569" viewBox="0 0 1440 569" fill="none" xmlns="http://www.w3.org/2000/svg">
<path d="M0 0L1249 251V382L0 568V0Z" fill="#FFF7CF"/>
<rect x="1" y="-1" width="243" height="328" rx="11" transform="matrix(-1 0 0 1 1351 206.5)" fill="#D9D9D9" stroke="#282828" stroke-width="2"/>
<path d="M1270.5 439C1258.64 435.86 1255.57 433.265 1253.5 430H1087.5C1091.63 435.185 1095.26 437.162 1104 439H1270.5Z" fill="#282828"/>
<path d="M1270.5 532.5V439H1104V522.5C1104 528.023 1108.48 532.5 1114 532.5H1270.5Z" fill="#585858"/>
<path d="M1104.5 253H1270.5V369H1104.5V253Z" fill="#282828"/>
<path d="M1270 532.5V439.5H1240V522.5C1240 528.023 1244.48 532.5 1250 532.5H1270Z" fill="#4B4B4B"/>
<path d="M1270 454.5V439.5H1104V444.5C1104 450.023 1108.48 454.5 1114 454.5H1270Z" fill="#4B4B4B"/>
<path d="M1270.5 439V532.5H1339C1344.52 532.5 1349 528.023 1349 522.5V253H1270.5V369L1251.5 402C1248.34 427.815 1252.03 436.398 1270.5 439Z" fill="#429292"/>
<path d="M1107 253.5H1349V212.5C1349 206.977 1344.52 202.5 1339 202.5H1107C1098.72 202.5 1092 209.216 1092 217.5V238.5C1092 246.784 1098.72 253.5 1107 253.5Z" fill="#0FAFC8"/>
<path d="M1253.5 430C1251.01 424.742 1250.82 417.774 1251.5 402H1086C1085.04 418.467 1084.43 425.038 1087.5 430H1253.5Z" fill="#585858"/>
<path d="M1113 253.5H1349V212.5C1349 206.977 1344.52 202.5 1339 202.5H1113C1104.72 202.5 1098 209.216 1098 217.5V238.5C1098 246.784 1104.72 253.5 1113 253.5Z" fill="#585858"/>
<path d="M1265 253.5H1327V212.5C1327 206.977 1322.52 202.5 1317 202.5H1265C1256.72 202.5 1250 209.216 1250 217.5V238.5C1250 246.784 1256.72 253.5 1265 253.5Z" fill="#0FAFC8"/>
<path d="M1273 253.5H1349V212.5C1349 206.977 1344.52 202.5 1339 202.5H1273C1264.72 202.5 1258 209.216 1258 217.5V238.5C1258 246.784 1264.72 253.5 1273 253.5Z" fill="#429292"/>
<path d="M1268 532.5V523.5H1104C1104 528.471 1108.03 532.5 1113 532.5H1268Z" fill="#282828"/>
<path d="M1251.5 402L1270.5 369H1104.5L1086 402H1251.5Z" fill="#282828"/>
<rect width="135" height="99" rx="10" transform="matrix(-1 0 0 1 1255 261.5)" fill="#D6D6D6"/>
<rect width="123" height="88" rx="8" transform="matrix(-1 0 0 1 1249 267.5)" fill="#567479"/>
<ellipse rx="9.5" ry="7" transform="matrix(-1 0 0 1 1148.5 383.5)" fill="#70C7D5"/>
<ellipse rx="9.5" ry="7" transform="matrix(-1 0 0 1 1114.5 388.5)" fill="#4E8F84"/>
<path d="M1208.84 376H1227.03C1230 376 1231.94 379.129 1230.61 381.789L1226.61 389.789C1225.93 391.144 1224.54 392 1223.03 392H1204.34C1201.28 392 1199.35 388.705 1200.85 386.039L1205.35 378.039C1206.06 376.779 1207.39 376 1208.84 376Z" fill="#606767"/>
<path d="M1218.5 362.5L1216 384" stroke="#4B4B4B" stroke-width="3" stroke-linecap="round"/>
<rect width="61" height="45" rx="10" transform="matrix(-1 0 0 1 1218 459.5)" fill="#282828"/>
<rect width="52" height="45" rx="10" transform="matrix(-1 0 0 1 1209 459.5)" fill="#585858"/>
<rect width="9" height="26" rx="2" transform="matrix(-1 0 0 1 1197 468.5)" fill="#3F6269"/>
<rect width="10" height="9" rx="2" transform="matrix(-1 0 0 1 1177 468.5)" fill="#70C7D4"/>
<rect width="10" height="9" rx="2" transform="matrix(-1 0 0 1 1177 485.5)" fill="#4E8F84"/>
<circle r="3.5" transform="matrix(-1 0 0 1 1254.5 458)" fill="#467B84"/>
<circle r="3.5" transform="matrix(-1 0 0 1 1285.5 263)" fill="#335960"/>
<circle r="3.5" transform="matrix(-1 0 0 1 1285.5 522)" fill="#335960"/>
<circle r="3.5" transform="matrix(-1 0 0 1 1337.5 264)" fill="#335960"/>
<circle r="3.5" transform="matrix(-1 0 0 1 1337.5 523)" fill="#335960"/>
<circle r="3.5" transform="matrix(-1 0 0 1 1121.5 458)" fill="#467B84"/>
<circle r="3.5" transform="matrix(-1 0 0 1 1254.5 508)" fill="#467B84"/>
<circle r="3.5" transform="matrix(-1 0 0 1 1121.5 508)" fill="#467B84"/>
<path d="M1202 355.5L1164.5 267.5H1191.5L1229 355.5H1202Z" fill="#8FB8B8"/>
<path d="M1156.51 253.5L1135 202.5H1150.49L1172 253.5H1156.51Z" fill="#6A6A6A"/>
<path d="M1170.5 355.5L1134 267.5H1149.5L1186 355.5H1170.5Z" fill="#8FB8B8"/>
<path d="M1138.06 253.5L1117 202.5H1125.94L1147 253.5H1138.06Z" fill="#6A6A6A"/>
<circle r="12.5" transform="matrix(-1 0 0 1 1220.5 351)" fill="#FC605C"/>
<rect width="16" height="279" transform="matrix(-1 0 0 1 1327 253.5)" fill="#BEAB7B"/>
<rect width="10" height="279" transform="matrix(-1 0 0 1 1304 253.5)" fill="#BEAB7B"/>
</svg>
