<svg width="205" height="169" viewBox="0 0 205 169" fill="none" xmlns="http://www.w3.org/2000/svg">
<ellipse cx="102.055" cy="84.5787" rx="91.3119" ry="83.7921" fill="#68B4E7"/>
<ellipse cx="102.055" cy="79.2074" rx="91.3119" ry="78.4208" fill="#70C6FF"/>
<ellipse cx="103" cy="33.5" rx="58" ry="32.5" fill="#92D3FF"/>
<ellipse cx="102" cy="30" rx="38" ry="22" fill="url(#paint0_linear_3_74)"/>
<path d="M100.5 11L106.97 21.5441L120.948 23.4377L110.969 31.8479L113.137 43.5623L100.5 38.216L87.8626 43.5623L90.0308 31.8479L80.0523 23.4377L94.0297 21.5441L100.5 11Z" fill="#70C6FF"/>
<ellipse cx="153.6" cy="106.834" rx="26.8564" ry="21.4851" transform="rotate(-9.26352 153.6 106.834)" fill="#F8F8F8"/>
<path d="M171.094 103.98C172.976 115.515 167.004 125.872 158.033 127.336C149.061 128.799 140.108 120.876 138.227 109.341C136.345 97.8063 142.316 87.4493 151.288 85.986C160.26 84.5227 169.213 92.4455 171.094 103.98Z" fill="url(#paint1_linear_3_74)" stroke="url(#paint2_linear_3_74)" stroke-width="1.07426"/>
<path d="M175.208 78.6692C176.249 78.0251 177.163 77.221 178.005 76.204C177.603 77.5673 177.171 78.6803 176.683 79.5983C175.586 81.6609 174.206 82.7456 172.098 83.4397L168.843 84.5113L172.127 85.4896C176.266 86.7225 179.571 86.6053 182.86 85.3126C184.788 84.5545 186.69 83.3982 188.735 81.9295C187.958 83.0754 187.195 84.0127 186.398 84.815C184.735 86.4894 182.87 87.6297 180.27 88.8237L178.825 89.4872L179.98 90.5801L183.438 93.8528C171.691 89.0892 162.194 86.6931 153.404 87.814C144.007 89.0123 135.609 94.1975 126.229 104.287L127.053 98.4504L127.432 95.7645L125.317 97.4626L121.565 100.474C122.014 99.7348 122.451 99.0405 122.868 98.4015C124.124 96.4775 125.157 95.1219 125.763 94.523C134.165 86.218 145.648 80.2147 164.829 81.4565L164.945 81.464L165.06 81.4465C169.401 80.786 172.631 80.2654 175.208 78.6692Z" fill="#324C6A" stroke="#324C6A" stroke-width="2.14851" stroke-linecap="round"/>
<path d="M159.409 112.417C159.95 115.732 158.137 118.611 155.589 119.027C153.04 119.442 150.407 117.289 149.867 113.973C149.326 110.658 151.138 107.78 153.687 107.364C156.235 106.948 158.868 109.102 159.409 112.417Z" fill="#9AD7FF" stroke="url(#paint3_linear_3_74)" stroke-width="1.07426"/>
<path d="M164.056 96.4207C164.406 98.5648 163.23 100.365 161.657 100.622C160.085 100.878 158.398 99.5447 158.048 97.4006C157.698 95.2566 158.874 93.4563 160.447 93.1998C162.02 92.9433 163.706 94.2767 164.056 96.4207Z" fill="#9AD7FF" stroke="url(#paint4_linear_3_74)" stroke-width="1.07426"/>
<ellipse rx="26.8564" ry="21.4851" transform="matrix(-0.986958 -0.160975 -0.160975 0.986958 51.1334 106.834)" fill="#F8F8F8"/>
<path d="M33.6393 103.98C31.7579 115.515 37.7291 125.872 46.701 127.336C55.6729 128.799 64.6256 120.876 66.507 109.341C68.3883 97.8063 62.4171 87.4493 53.4452 85.986C44.4734 84.5227 35.5207 92.4455 33.6393 103.98Z" fill="url(#paint5_linear_3_74)" stroke="url(#paint6_linear_3_74)" stroke-width="1.07426"/>
<path d="M29.525 78.6692C28.4849 78.0251 27.5706 77.221 26.7284 76.204C27.1305 77.5673 27.5629 78.6803 28.0509 79.5983C29.1472 81.6609 30.5274 82.7456 32.6353 83.4397L35.8901 84.5113L32.6061 85.4896C28.4674 86.7225 25.1624 86.6053 21.8739 85.3126C19.9453 84.5545 18.0431 83.3982 15.9985 81.9295C16.7758 83.0754 17.5386 84.0127 18.3353 84.815C19.9982 86.4894 21.8635 87.6297 24.4635 88.8237L25.9083 89.4872L24.7536 90.5801L21.2958 93.8528C33.0424 89.0892 42.5396 86.6931 51.3299 87.814C60.7264 89.0123 69.1246 94.1975 78.5041 104.287L77.6807 98.4504L77.3017 95.7645L79.4169 97.4626L83.1683 100.474C82.7197 99.7348 82.2827 99.0405 81.8656 98.4015C80.6096 96.4775 79.5767 95.1219 78.9707 94.523C70.5682 86.218 59.086 80.2147 39.9044 81.4565L39.7884 81.464L39.6734 81.4465C35.3321 80.786 32.1028 80.2654 29.525 78.6692Z" fill="#324C6A" stroke="#324C6A" stroke-width="2.14851" stroke-linecap="round"/>
<path d="M45.3247 112.417C44.784 115.732 46.5961 118.611 49.1447 119.027C51.6933 119.442 54.3262 117.289 54.8669 113.973C55.4076 110.658 53.5955 107.78 51.0469 107.364C48.4983 106.948 45.8654 109.102 45.3247 112.417Z" fill="#9AD7FF" stroke="url(#paint7_linear_3_74)" stroke-width="1.07426"/>
<path d="M40.6774 96.4207C40.3277 98.5648 41.5035 100.365 43.0762 100.622C44.6488 100.878 46.3357 99.5447 46.6854 97.4007C47.0351 95.2566 45.8594 93.4564 44.2867 93.1998C42.714 92.9433 41.0271 94.2767 40.6774 96.4207Z" fill="#9AD7FF" stroke="url(#paint8_linear_3_74)" stroke-width="1.07426"/>
<path d="M88.0891 138.292C97.947 146.886 104.013 146.886 113.871 138.292" stroke="#324C6A" stroke-width="2.14851" stroke-linecap="round"/>
<defs>
<linearGradient id="paint0_linear_3_74" x1="102" y1="8" x2="102" y2="52" gradientUnits="userSpaceOnUse">
<stop stop-color="#324C6A"/>
<stop offset="1" stop-color="#324C6A"/>
</linearGradient>
<linearGradient id="paint1_linear_3_74" x1="151.202" y1="85.4559" x2="158.119" y2="127.866" gradientUnits="userSpaceOnUse">
<stop stop-color="#457DBF"/>
<stop offset="1" stop-color="#70C6FF"/>
</linearGradient>
<linearGradient id="paint2_linear_3_74" x1="151.202" y1="85.4559" x2="158.119" y2="127.866" gradientUnits="userSpaceOnUse">
<stop stop-color="#324C6A"/>
<stop offset="1" stop-color="#70C6FF"/>
</linearGradient>
<linearGradient id="paint3_linear_3_74" x1="153.6" y1="106.834" x2="155.675" y2="119.557" gradientUnits="userSpaceOnUse">
<stop stop-color="#457DBF"/>
<stop offset="1" stop-color="#70C6FF" stop-opacity="0"/>
</linearGradient>
<linearGradient id="paint4_linear_3_74" x1="160.36" y1="92.6697" x2="161.744" y2="101.152" gradientUnits="userSpaceOnUse">
<stop stop-color="#457DBF"/>
<stop offset="1" stop-color="#70C6FF" stop-opacity="0"/>
</linearGradient>
<linearGradient id="paint5_linear_3_74" x1="53.5317" y1="85.4559" x2="46.6145" y2="127.866" gradientUnits="userSpaceOnUse">
<stop stop-color="#457DBF"/>
<stop offset="1" stop-color="#70C6FF"/>
</linearGradient>
<linearGradient id="paint6_linear_3_74" x1="53.5317" y1="85.4559" x2="46.6145" y2="127.866" gradientUnits="userSpaceOnUse">
<stop stop-color="#324C6A"/>
<stop offset="1" stop-color="#70C6FF"/>
</linearGradient>
<linearGradient id="paint7_linear_3_74" x1="51.1334" y1="106.834" x2="49.0582" y2="119.557" gradientUnits="userSpaceOnUse">
<stop stop-color="#457DBF"/>
<stop offset="1" stop-color="#457DBF" stop-opacity="0"/>
</linearGradient>
<linearGradient id="paint8_linear_3_74" x1="44.3731" y1="92.6697" x2="42.9897" y2="101.152" gradientUnits="userSpaceOnUse">
<stop stop-color="#457DBF"/>
<stop offset="1" stop-color="#457DBF" stop-opacity="0"/>
</linearGradient>
</defs>
</svg>
