<svg width="190" height="168" viewBox="0 0 190 168" fill="none" xmlns="http://www.w3.org/2000/svg">
<ellipse cx="95.0545" cy="83.7921" rx="91.3119" ry="83.7921" fill="#68B4E7"/>
<ellipse cx="95.0545" cy="78.4208" rx="91.3119" ry="78.4208" fill="#70C6FF"/>
<ellipse cx="96" cy="32.7134" rx="58" ry="32.5" fill="#92D3FF"/>
<ellipse cx="95" cy="29.2134" rx="38" ry="22" fill="url(#paint0_linear_7_17)"/>
<path d="M93.5 10.2134L99.9703 20.7575L113.948 22.6511L103.969 31.0613L106.137 42.7757L93.5 37.4294L80.8626 42.7757L83.0308 31.0613L73.0523 22.6511L87.0297 20.7575L93.5 10.2134Z" fill="#70C6FF"/>
<path d="M81.0891 137.505C90.947 146.099 97.0134 146.099 106.871 137.505" stroke="#324C6A" stroke-width="2.14851" stroke-linecap="round"/>
<path d="M14.8614 93.5886C14.6694 93.5829 14.4775 93.574 14.2858 93.5618C15.3387 93.8735 16.4925 94.253 17.7665 94.838L18.7982 95.3118L18.2683 96.3157C17.9226 96.9707 17.3412 97.4385 16.6813 97.795C16.1826 98.0643 15.5922 98.2951 14.9261 98.5032C18.3449 98.5274 21.6303 98.4013 24.8535 98.2456C25.6887 98.2052 26.5206 98.1628 27.3501 98.1205C32.272 97.8695 37.1083 97.6228 42.0383 97.8391C51.4734 98.2531 61.2467 100.36 72.9902 107.243C72.1168 106.265 71.5505 105.537 71.1401 104.89L69.8085 102.789L72.251 103.26L81.2883 105.004C78.987 103.505 76.9008 102.054 75.1218 100.783C73.9652 99.9575 72.935 99.2057 72.063 98.5692C71.8087 98.3837 71.5678 98.2079 71.3412 98.0429C70.3137 97.2951 69.6222 96.8027 69.2574 96.5875C64.0569 93.52 59.6249 91.3711 54.2421 89.9539C48.8475 88.5335 42.4436 87.8339 33.2918 87.7366C31.0373 87.7126 28.7319 87.9719 26.4247 88.2484C26.2846 88.2652 26.1444 88.2821 26.0041 88.299C24.1194 88.5258 22.2257 88.7536 20.4326 88.8087C20.6828 88.821 20.9346 88.8321 21.1878 88.8433C21.2964 88.8481 21.4053 88.853 21.5144 88.8579C23.0082 88.9253 24.5964 89.0122 25.9384 89.454L29.1932 90.5256L25.9092 91.504C21.9973 92.6693 18.4372 93.6941 14.8614 93.5886Z" fill="#324C6A" stroke="#324C6A" stroke-width="2.14851" stroke-linecap="round"/>
<path d="M174.874 93.5886C175.066 93.5829 175.258 93.574 175.449 93.5618C174.396 93.8735 173.243 94.253 171.969 94.838L170.937 95.3118L171.467 96.3157C171.813 96.9707 172.394 97.4385 173.054 97.795C173.553 98.0643 174.143 98.2951 174.809 98.5032C171.39 98.5274 168.105 98.4013 164.882 98.2456C164.046 98.2052 163.215 98.1628 162.385 98.1205C157.463 97.8695 152.627 97.6228 147.697 97.8391C138.262 98.2531 128.488 100.36 116.745 107.243C117.618 106.265 118.185 105.537 118.595 104.89L119.927 102.789L117.484 103.26L108.447 105.004C110.748 103.505 112.834 102.054 114.613 100.783C115.77 99.9575 116.8 99.2057 117.672 98.5692C117.926 98.3837 118.167 98.2079 118.394 98.0429C119.421 97.2951 120.113 96.8027 120.478 96.5875C125.678 93.52 130.11 91.3711 135.493 89.9539C140.888 88.5335 147.292 87.8339 156.443 87.7366C158.698 87.7126 161.003 87.9719 163.31 88.2484C163.451 88.2652 163.591 88.2821 163.731 88.299C165.616 88.5258 167.509 88.7536 169.303 88.8087C169.052 88.821 168.801 88.8321 168.547 88.8433C168.439 88.8481 168.33 88.853 168.221 88.8579C166.727 88.9253 165.139 89.0122 163.797 89.454L160.542 90.5256L163.826 91.504C167.738 92.6693 171.298 93.6941 174.874 93.5886Z" fill="#324C6A" stroke="#324C6A" stroke-width="2.14851" stroke-linecap="round"/>
<defs>
<linearGradient id="paint0_linear_7_17" x1="95" y1="7.21338" x2="95" y2="51.2134" gradientUnits="userSpaceOnUse">
<stop stop-color="#324C6A"/>
<stop offset="1" stop-color="#324C6A"/>
</linearGradient>
</defs>
</svg>
