<svg width="190" height="206" viewBox="0 0 190 206" fill="none" xmlns="http://www.w3.org/2000/svg">
<path d="M188.95 113.56C188.95 164.613 143.812 192.084 95.4504 206C48.163 191.09 1.95038 164.613 1.95038 113.56C1.95038 62.5072 43.8118 41 95.4504 41C147.089 41 188.95 62.5072 188.95 113.56Z" fill="#FF7E86"/>
<path d="M188.95 113.56C188.95 164.613 143.812 192.084 95.4504 206C48.163 191.09 1.95038 164.613 1.95038 113.56C1.95038 62.5072 43.8118 41 95.4504 41C147.089 41 188.95 62.5072 188.95 113.56Z" fill="#FF7E86"/>
<path d="M188.95 113.56C188.95 164.613 143.812 192.084 95.4504 206C48.163 191.09 1.95038 164.613 1.95038 113.56C1.95038 62.5072 43.8118 41 95.4504 41C147.089 41 188.95 62.5072 188.95 113.56Z" fill="#ED666E"/>
<path d="M188.95 113.886C188.95 158.132 143.812 181.94 95.4504 194C48.163 181.078 1.95038 158.132 1.95038 113.886C1.95038 69.6396 43.8118 51 95.4504 51C147.089 51 188.95 69.6396 188.95 113.886Z" fill="#FF7E86"/>
<path d="M188.95 113.886C188.95 158.132 143.812 181.94 95.4504 194C48.163 181.078 1.95038 158.132 1.95038 113.886C1.95038 69.6396 43.8118 51 95.4504 51C147.089 51 188.95 69.6396 188.95 113.886Z" fill="#FF7E86"/>
<path d="M188.95 113.886C188.95 158.132 143.812 181.94 95.4504 194C48.163 181.078 1.95038 158.132 1.95038 113.886C1.95038 69.6396 43.8118 51 95.4504 51C147.089 51 188.95 69.6396 188.95 113.886Z" fill="#FF888F"/>
<ellipse rx="18.5235" ry="11.0841" transform="matrix(0.970554 -0.240884 0.277885 0.960614 158.711 149.36)" fill="#FFC1C9"/>
<ellipse rx="18.5235" ry="11.0841" transform="matrix(-0.970554 -0.240884 -0.277885 0.960614 32.8003 149.36)" fill="#FFC1C9"/>
<path d="M81.9504 164C92.1428 169.234 98.2575 169.246 107.95 164" stroke="#6A3243" stroke-width="2.14851" stroke-linecap="round"/>
<path d="M39.9504 58C51.4512 49.6846 63.7136 46.3002 79.9104 42L113.39 43C125.27 45 136.767 48.5957 147.95 58C137.407 56.0905 127.175 53.3141 116.63 56L122.03 91L96.1104 66L70.1904 91L78.8304 56C64.4881 53.3815 56.0132 53.666 39.9504 58Z" fill="#ED666E" stroke="#ED666E" stroke-width="2.14851" stroke-linecap="round"/>
<path d="M110.946 41.8168C128.134 50.7723 146.396 64.703 139.95 90.5743L117.391 72.1658L94.8316 53.7574V33.8564C116.16 33.5771 120.08 26.9173 139.95 13.9554C132.431 28.8812 123.837 35.8465 110.946 41.8168Z" fill="url(#paint0_linear_7_36)" stroke="url(#paint1_linear_7_36)" stroke-width="2.14851" stroke-linecap="round"/>
<path d="M77.8943 41.8168C60.7063 50.7723 42.4439 64.703 48.8894 90.5743L71.4488 72.1658L94.0082 53.7574V33.8564C72.6796 33.5771 68.7601 26.9173 48.8894 13.9554C56.4092 28.8812 65.0033 35.8465 77.8943 41.8168Z" fill="url(#paint2_linear_7_36)" stroke="url(#paint3_linear_7_36)" stroke-width="2.14851" stroke-linecap="round"/>
<path d="M82.4052 2.9119L80.3171 0.457089L75.4075 4.63329L77.4956 7.0881L82.4052 2.9119ZM91.7372 41.248C91.8741 43.0226 93.4237 44.3502 95.1983 44.2132C96.973 44.0763 98.3005 42.5266 98.1636 40.752L91.7372 41.248ZM77.4956 7.0881C83.0248 13.5884 86.2541 18.6052 88.2709 23.6577C90.2885 28.7119 91.1788 34.0133 91.7372 41.248L98.1636 40.752C97.5856 33.2627 96.629 27.2099 94.2571 21.2681C91.8846 15.3245 88.1819 9.70315 82.4052 2.9119L77.4956 7.0881Z" fill="#5E7B57"/>
<circle cx="123.5" cy="164.5" r="1.5" fill="#FFC1C9"/>
<circle cx="139.5" cy="164.5" r="1.5" fill="#FFC1C9"/>
<circle cx="131.5" cy="159.5" r="1.5" fill="#FFC1C9"/>
<circle cx="50.4999" cy="164.5" r="1.5" fill="#FFC1C9"/>
<circle cx="66.4999" cy="164.5" r="1.5" fill="#FFC1C9"/>
<circle cx="58.4999" cy="159.5" r="1.5" fill="#FFC1C9"/>
<path d="M14.8614 121.589C14.6694 121.583 14.4775 121.574 14.2858 121.562C15.3387 121.873 16.4925 122.253 17.7665 122.838L18.7982 123.312L18.2683 124.316C17.9226 124.971 17.3412 125.439 16.6813 125.795C16.1826 126.064 15.5922 126.295 14.9261 126.503C18.3449 126.527 21.6303 126.401 24.8535 126.246C25.6887 126.205 26.5206 126.163 27.3501 126.12C32.272 125.869 37.1083 125.623 42.0383 125.839C51.4734 126.253 61.2467 128.36 72.9902 135.243C72.1168 134.265 71.5505 133.537 71.1401 132.89L69.8085 130.789L72.251 131.26L81.2883 133.004C78.987 131.505 76.9008 130.054 75.1218 128.783C73.9652 127.957 72.935 127.206 72.063 126.569C71.8087 126.384 71.5678 126.208 71.3412 126.043C70.3137 125.295 69.6222 124.803 69.2574 124.588C64.0569 121.52 59.6249 119.371 54.2421 117.954C48.8475 116.534 42.4436 115.834 33.2918 115.737C31.0373 115.713 28.7319 115.972 26.4247 116.248C26.2846 116.265 26.1444 116.282 26.0041 116.299C24.1194 116.526 22.2257 116.754 20.4326 116.809C20.6828 116.821 20.9346 116.832 21.1878 116.843C21.2964 116.848 21.4053 116.853 21.5144 116.858C23.0082 116.925 24.5964 117.012 25.9384 117.454L29.1932 118.526L25.9092 119.504C21.9973 120.669 18.4372 121.694 14.8614 121.589Z" fill="#6A3243" stroke="#6A3243" stroke-width="2.14851" stroke-linecap="round"/>
<path d="M174.874 121.589C175.066 121.583 175.258 121.574 175.449 121.562C174.396 121.873 173.243 122.253 171.969 122.838L170.937 123.312L171.467 124.316C171.813 124.971 172.394 125.439 173.054 125.795C173.553 126.064 174.143 126.295 174.809 126.503C171.39 126.527 168.105 126.401 164.882 126.246C164.046 126.205 163.215 126.163 162.385 126.12C157.463 125.869 152.627 125.623 147.697 125.839C138.262 126.253 128.488 128.36 116.745 135.243C117.618 134.265 118.185 133.537 118.595 132.89L119.927 130.789L117.484 131.26L108.447 133.004C110.748 131.505 112.834 130.054 114.613 128.783C115.77 127.957 116.8 127.206 117.672 126.569C117.926 126.384 118.167 126.208 118.394 126.043C119.421 125.295 120.113 124.803 120.478 124.588C125.678 121.52 130.11 119.371 135.493 117.954C140.888 116.534 147.292 115.834 156.443 115.737C158.698 115.713 161.003 115.972 163.31 116.248C163.451 116.265 163.591 116.282 163.731 116.299C165.616 116.526 167.509 116.754 169.303 116.809C169.052 116.821 168.801 116.832 168.547 116.843C168.439 116.848 168.33 116.853 168.221 116.858C166.727 116.925 165.139 117.012 163.797 117.454L160.542 118.526L163.826 119.504C167.738 120.669 171.298 121.694 174.874 121.589Z" fill="#6A3243" stroke="#6A3243" stroke-width="2.14851" stroke-linecap="round"/>
<defs>
<linearGradient id="paint0_linear_7_36" x1="118.054" y1="13.9554" x2="118.054" y2="90.5743" gradientUnits="userSpaceOnUse">
<stop stop-color="#5E7B57"/>
<stop offset="1" stop-color="#85B678"/>
</linearGradient>
<linearGradient id="paint1_linear_7_36" x1="118.054" y1="13.9554" x2="118.054" y2="90.5743" gradientUnits="userSpaceOnUse">
<stop stop-color="#5E7B57"/>
<stop offset="1" stop-color="#85B678"/>
</linearGradient>
<linearGradient id="paint2_linear_7_36" x1="70.7863" y1="13.9554" x2="70.7863" y2="90.5743" gradientUnits="userSpaceOnUse">
<stop stop-color="#5E7B57"/>
<stop offset="1" stop-color="#85B678"/>
</linearGradient>
<linearGradient id="paint3_linear_7_36" x1="70.7863" y1="13.9554" x2="70.7863" y2="90.5743" gradientUnits="userSpaceOnUse">
<stop stop-color="#5E7B57"/>
<stop offset="1" stop-color="#85B678"/>
</linearGradient>
</defs>
</svg>
