<svg width="64" height="63" viewBox="0 0 64 63" fill="none" xmlns="http://www.w3.org/2000/svg">
<path d="M8.66379 28.611C7.2273 28.611 6.06279 29.7755 6.06279 31.212C6.06279 32.6485 7.2273 33.813 8.66379 33.813V28.611ZM11.2648 33.813C12.7013 33.813 13.8658 32.6485 13.8658 31.212C13.8658 29.7755 12.7013 28.611 11.2648 28.611V33.813ZM34.6736 7.80298C34.6736 6.36649 33.5091 5.20198 32.0726 5.20198C30.6361 5.20198 29.4716 6.36649 29.4716 7.80298H34.6736ZM29.4716 10.404C29.4716 11.8405 30.6361 13.005 32.0726 13.005C33.5091 13.005 34.6736 11.8405 34.6736 10.404H29.4716ZM52.8808 28.611C51.4443 28.611 50.2798 29.7755 50.2798 31.212C50.2798 32.6485 51.4443 33.813 52.8808 33.813V28.611ZM55.4818 33.813C56.9183 33.813 58.0828 32.6485 58.0828 31.212C58.0828 29.7755 56.9183 28.611 55.4818 28.611V33.813ZM17.2656 12.7264C16.2498 11.7106 14.6029 11.7106 13.5872 12.7264C12.5714 13.7421 12.5714 15.389 13.5872 16.4047L17.2656 12.7264ZM15.4079 18.2254C16.4236 19.2412 18.0705 19.2412 19.0863 18.2254C20.102 17.2097 20.102 15.5628 19.0863 14.5471L15.4079 18.2254ZM50.5584 16.4047C51.5742 15.389 51.5742 13.7421 50.5584 12.7264C49.5427 11.7106 47.8958 11.7106 46.88 12.7264L50.5584 16.4047ZM45.0593 14.5471C44.0436 15.5628 44.0436 17.2097 45.0593 18.2254C46.0751 19.2412 47.722 19.2412 48.7377 18.2254L45.0593 14.5471ZM8.66379 33.813H11.2648V28.611H8.66379V33.813ZM29.4716 7.80298V10.404H34.6736V7.80298H29.4716ZM52.8808 33.813H55.4818V28.611H52.8808V33.813ZM13.5872 16.4047L15.4079 18.2254L19.0863 14.5471L17.2656 12.7264L13.5872 16.4047ZM46.88 12.7264L45.0593 14.5471L48.7377 18.2254L50.5584 16.4047L46.88 12.7264Z" fill="url(#paint0_linear_7_1183)"/>
<path d="M24.2699 41.616C19.7917 38.2574 17.9651 32.41 19.7353 27.0995C21.5055 21.789 26.4752 18.207 32.0729 18.207C37.6706 18.207 42.6404 21.789 44.4105 27.0995C46.1807 32.41 44.3541 38.2574 39.8759 41.616C37.8163 43.6548 36.8505 46.5523 37.2749 49.419C37.2749 52.292 34.9459 54.621 32.0729 54.621C29.1999 54.621 26.8709 52.292 26.8709 49.419C27.2953 46.5523 26.3295 43.6548 24.2699 41.616" stroke="url(#paint1_linear_7_1183)" stroke-width="5.202" stroke-linecap="round" stroke-linejoin="round"/>
<path d="M26.0906 44.217H38.0552" stroke="url(#paint2_linear_7_1183)" stroke-width="5.202" stroke-linecap="round" stroke-linejoin="round"/>
<defs>
<linearGradient id="paint0_linear_7_1183" x1="32.0728" y1="7.80298" x2="32.0728" y2="31.212" gradientUnits="userSpaceOnUse">
<stop stop-color="#F8F8F8"/>
<stop offset="1" stop-color="#F8F8F8" stop-opacity="0"/>
</linearGradient>
<linearGradient id="paint1_linear_7_1183" x1="32.0729" y1="18.207" x2="32.0729" y2="54.621" gradientUnits="userSpaceOnUse">
<stop stop-color="#F8F8F8"/>
<stop offset="1" stop-color="#F8F8F8" stop-opacity="0"/>
</linearGradient>
<linearGradient id="paint2_linear_7_1183" x1="32.0729" y1="42.9165" x2="32.0729" y2="45.5175" gradientUnits="userSpaceOnUse">
<stop stop-color="#F8F8F8"/>
<stop offset="1" stop-color="#F8F8F8" stop-opacity="0"/>
</linearGradient>
</defs>
</svg>
