<svg width="34" height="34" viewBox="0 0 34 34" fill="none" xmlns="http://www.w3.org/2000/svg">
<circle cx="17.0002" cy="16.9997" r="5.66667" stroke="white" stroke-width="2" stroke-linecap="round" stroke-linejoin="round"/>
<path d="M4.25 16C3.69772 16 3.25 16.4477 3.25 17C3.25 17.5523 3.69772 18 4.25 18V16ZM5.66667 18C6.21895 18 6.66667 17.5523 6.66667 17C6.66667 16.4477 6.21895 16 5.66667 16V18ZM18 4.25C18 3.69772 17.5523 3.25 17 3.25C16.4477 3.25 16 3.69772 16 4.25H18ZM16 5.66667C16 6.21895 16.4477 6.66667 17 6.66667C17.5523 6.66667 18 6.21895 18 5.66667H16ZM28.3333 16C27.781 16 27.3333 16.4477 27.3333 17C27.3333 17.5523 27.781 18 28.3333 18V16ZM29.75 18C30.3023 18 30.75 17.5523 30.75 17C30.75 16.4477 30.3023 16 29.75 16V18ZM18 28.3333C18 27.781 17.5523 27.3333 17 27.3333C16.4477 27.3333 16 27.781 16 28.3333H18ZM16 29.75C16 30.3023 16.4477 30.75 17 30.75C17.5523 30.75 18 30.3023 18 29.75H16ZM8.64044 7.22623C8.24992 6.8357 7.61675 6.8357 7.22623 7.22623C6.8357 7.61675 6.8357 8.24992 7.22623 8.64044L8.64044 7.22623ZM8.21789 9.63211C8.60842 10.0226 9.24158 10.0226 9.63211 9.63211C10.0226 9.24158 10.0226 8.60842 9.63211 8.21789L8.21789 9.63211ZM26.7738 8.64044C27.1643 8.24991 27.1643 7.61675 26.7738 7.22623C26.3832 6.8357 25.7501 6.8357 25.3596 7.22623L26.7738 8.64044ZM24.3679 8.21789C23.9774 8.60842 23.9774 9.24158 24.3679 9.63211C24.7584 10.0226 25.3916 10.0226 25.7821 9.63211L24.3679 8.21789ZM25.7821 24.3679C25.3916 23.9774 24.7584 23.9774 24.3679 24.3679C23.9774 24.7584 23.9774 25.3916 24.3679 25.7821L25.7821 24.3679ZM25.3596 26.7738C25.7501 27.1643 26.3832 27.1643 26.7738 26.7738C27.1643 26.3832 27.1643 25.7501 26.7738 25.3596L25.3596 26.7738ZM9.63211 25.7821C10.0226 25.3916 10.0226 24.7584 9.63211 24.3679C9.24158 23.9774 8.60842 23.9774 8.21789 24.3679L9.63211 25.7821ZM7.22623 25.3596C6.8357 25.7501 6.8357 26.3832 7.22623 26.7738C7.61675 27.1643 8.24991 27.1643 8.64044 26.7738L7.22623 25.3596ZM4.25 18H5.66667V16H4.25V18ZM16 4.25V5.66667H18V4.25H16ZM28.3333 18H29.75V16H28.3333V18ZM16 28.3333V29.75H18V28.3333H16ZM7.22623 8.64044L8.21789 9.63211L9.63211 8.21789L8.64044 7.22623L7.22623 8.64044ZM25.3596 7.22623L24.3679 8.21789L25.7821 9.63211L26.7738 8.64044L25.3596 7.22623ZM24.3679 25.7821L25.3596 26.7738L26.7738 25.3596L25.7821 24.3679L24.3679 25.7821ZM8.21789 24.3679L7.22623 25.3596L8.64044 26.7738L9.63211 25.7821L8.21789 24.3679Z" fill="white"/>
</svg>
