<svg width="1440" height="569" viewBox="0 0 1440 569" fill="none" xmlns="http://www.w3.org/2000/svg">
<path d="M0 0.5L1249 251.5V382.5L0 568.5V0.5Z" fill="#424242"/>
<rect x="1" y="-1" width="243" height="328" rx="11" transform="matrix(-1 0 0 1 1351 207)" fill="#D9D9D9" stroke="#282828" stroke-width="2"/>
<path d="M1270.5 439.5C1258.64 436.36 1255.57 433.765 1253.5 430.5H1087.5C1091.63 435.685 1095.26 437.662 1104 439.5H1270.5Z" fill="#282828"/>
<path d="M1270.5 533V439.5H1104V523C1104 528.523 1108.48 533 1114 533H1270.5Z" fill="#585858"/>
<path d="M1104.5 253.5H1270.5V369.5H1104.5V253.5Z" fill="#282828"/>
<path d="M1270 533V440H1240V523C1240 528.523 1244.48 533 1250 533H1270Z" fill="#4B4B4B"/>
<path d="M1270 455V440H1104V445C1104 450.523 1108.48 455 1114 455H1270Z" fill="#4B4B4B"/>
<path d="M1270.5 439.5V533H1339C1344.52 533 1349 528.523 1349 523V253.5H1270.5V369.5L1251.5 402.5C1248.34 428.315 1252.03 436.898 1270.5 439.5Z" fill="#429292"/>
<path d="M1107 254H1349V213C1349 207.477 1344.52 203 1339 203H1107C1098.72 203 1092 209.716 1092 218V239C1092 247.284 1098.72 254 1107 254Z" fill="#0FAFC8"/>
<path d="M1253.5 430.5C1251.01 425.242 1250.82 418.274 1251.5 402.5H1086C1085.04 418.967 1084.43 425.538 1087.5 430.5H1253.5Z" fill="#585858"/>
<path d="M1113 254H1349V213C1349 207.477 1344.52 203 1339 203H1113C1104.72 203 1098 209.716 1098 218V239C1098 247.284 1104.72 254 1113 254Z" fill="#585858"/>
<path d="M1265 254H1327V213C1327 207.477 1322.52 203 1317 203H1265C1256.72 203 1250 209.716 1250 218V239C1250 247.284 1256.72 254 1265 254Z" fill="#0FAFC8"/>
<path d="M1273 254H1349V213C1349 207.477 1344.52 203 1339 203H1273C1264.72 203 1258 209.716 1258 218V239C1258 247.284 1264.72 254 1273 254Z" fill="#429292"/>
<path d="M1268 533V524H1104C1104 528.971 1108.03 533 1113 533H1268Z" fill="#282828"/>
<path d="M1251.5 402.5L1270.5 369.5H1104.5L1086 402.5H1251.5Z" fill="#282828"/>
<rect width="135" height="99" rx="10" transform="matrix(-1 0 0 1 1255 262)" fill="#D6D6D6"/>
<rect width="123" height="88" rx="8" transform="matrix(-1 0 0 1 1249 268)" fill="#567479"/>
<ellipse rx="9.5" ry="7" transform="matrix(-1 0 0 1 1148.5 384)" fill="#70C7D5"/>
<ellipse rx="9.5" ry="7" transform="matrix(-1 0 0 1 1114.5 389)" fill="#4E8F84"/>
<path d="M1208.84 376.5H1227.03C1230 376.5 1231.94 379.629 1230.61 382.289L1226.61 390.289C1225.93 391.644 1224.54 392.5 1223.03 392.5H1204.34C1201.28 392.5 1199.35 389.205 1200.85 386.539L1205.35 378.539C1206.06 377.279 1207.39 376.5 1208.84 376.5Z" fill="#606767"/>
<path d="M1218.5 363L1216 384.5" stroke="#4B4B4B" stroke-width="3" stroke-linecap="round"/>
<rect width="61" height="45" rx="10" transform="matrix(-1 0 0 1 1218 460)" fill="#282828"/>
<rect width="52" height="45" rx="10" transform="matrix(-1 0 0 1 1209 460)" fill="#585858"/>
<rect width="9" height="26" rx="2" transform="matrix(-1 0 0 1 1197 469)" fill="#3F6269"/>
<rect width="10" height="9" rx="2" transform="matrix(-1 0 0 1 1177 469)" fill="#70C7D4"/>
<rect width="10" height="9" rx="2" transform="matrix(-1 0 0 1 1177 486)" fill="#4E8F84"/>
<circle r="3.5" transform="matrix(-1 0 0 1 1254.5 458.5)" fill="#467B84"/>
<circle r="3.5" transform="matrix(-1 0 0 1 1285.5 263.5)" fill="#335960"/>
<circle r="3.5" transform="matrix(-1 0 0 1 1285.5 522.5)" fill="#335960"/>
<circle r="3.5" transform="matrix(-1 0 0 1 1337.5 264.5)" fill="#335960"/>
<circle r="3.5" transform="matrix(-1 0 0 1 1337.5 523.5)" fill="#335960"/>
<circle r="3.5" transform="matrix(-1 0 0 1 1121.5 458.5)" fill="#467B84"/>
<circle r="3.5" transform="matrix(-1 0 0 1 1254.5 508.5)" fill="#467B84"/>
<circle r="3.5" transform="matrix(-1 0 0 1 1121.5 508.5)" fill="#467B84"/>
<path d="M1202 356L1164.5 268H1191.5L1229 356H1202Z" fill="#8FB8B8"/>
<path d="M1156.51 254L1135 203H1150.49L1172 254H1156.51Z" fill="#6A6A6A"/>
<path d="M1170.5 356L1134 268H1149.5L1186 356H1170.5Z" fill="#8FB8B8"/>
<path d="M1138.06 254L1117 203H1125.94L1147 254H1138.06Z" fill="#6A6A6A"/>
<circle r="12.5" transform="matrix(-1 0 0 1 1220.5 351.5)" fill="#FC605C"/>
<rect width="16" height="279" transform="matrix(-1 0 0 1 1327 254)" fill="#BEAB7B"/>
<rect width="10" height="279" transform="matrix(-1 0 0 1 1304 254)" fill="#BEAB7B"/>
</svg>
