<svg width="64" height="64" viewBox="0 0 64 64" fill="none" xmlns="http://www.w3.org/2000/svg">
<circle cx="31.8495" cy="34.6055" r="7.80299" stroke="#F8F8F8" stroke-width="5.202" stroke-linecap="round" stroke-linejoin="round"/>
<path d="M13.6426 16.3985C12.2061 16.3985 11.0416 17.563 11.0416 18.9995C11.0416 20.436 12.2061 21.6005 13.6426 21.6005V16.3985ZM31.8496 13.7975C33.2861 13.7975 34.4506 12.633 34.4506 11.1965C34.4506 9.76004 33.2861 8.59554 31.8496 8.59554V13.7975ZM57.8596 29.4035C57.8596 27.967 56.6951 26.8025 55.2586 26.8025C53.8221 26.8025 52.6576 27.967 52.6576 29.4035H57.8596ZM13.6426 21.6005C15.0791 21.6005 16.2436 20.436 16.2436 18.9995C16.2436 17.563 15.0791 16.3985 13.6426 16.3985V21.6005ZM13.6426 21.6005H18.8446V16.3985H13.6426V21.6005ZM18.8446 21.6005C23.1541 21.6005 26.6476 18.107 26.6476 13.7975H21.4456C21.4456 15.234 20.2811 16.3985 18.8446 16.3985V21.6005ZM26.6476 13.7975V8.59554C23.7746 8.59554 21.4456 10.9245 21.4456 13.7975H26.6476ZM26.6476 13.7975H31.8496V8.59554H26.6476V13.7975ZM52.6576 29.4035V47.6105H57.8596V29.4035H52.6576ZM52.6576 47.6105C52.6576 49.047 51.4931 50.2115 50.0566 50.2115V55.4135C54.3661 55.4135 57.8596 51.92 57.8596 47.6105H52.6576ZM50.0566 50.2115H13.6426V55.4135H50.0566V50.2115ZM13.6426 50.2115C12.2061 50.2115 11.0416 49.047 11.0416 47.6105H5.83965C5.83965 51.92 9.33316 55.4135 13.6426 55.4135V50.2115ZM11.0416 47.6105V24.2015H5.83965V47.6105H11.0416ZM11.0416 24.2015C11.0416 22.765 12.2061 21.6005 13.6426 21.6005V16.3985C9.33316 16.3985 5.83965 19.892 5.83965 24.2015H11.0416Z" fill="#F8F8F8"/>
<path d="M39.6528 16.3984H55.2588" stroke="#F8F8F8" stroke-width="5.202" stroke-linecap="round" stroke-linejoin="round"/>
<path d="M47.4557 8.59546V24.2014" stroke="#F8F8F8" stroke-width="5.202" stroke-linecap="round" stroke-linejoin="round"/>
</svg>
