<svg width="190" height="227" viewBox="0 0 190 227" fill="none" xmlns="http://www.w3.org/2000/svg">
<ellipse cx="95.0545" cy="142.579" rx="91.3119" ry="83.7921" fill="#F8A340"/>
<ellipse cx="95.0545" cy="137.207" rx="91.3119" ry="78.4208" fill="#FFBD70"/>
<path d="M78.9999 190.371C90.8529 195.704 98.147 195.704 110 190.371" stroke="#324C6A" stroke-width="2.14851" stroke-linecap="round"/>
<ellipse cx="94.9999" cy="71.5" rx="15" ry="9.5" fill="#F8A340"/>
<ellipse rx="28.7497" ry="15.1114" transform="matrix(-0.922369 0.386309 0.386309 0.922369 52.3555 96.0446)" fill="#FFD4A0"/>
<path d="M82.4548 26.2827L80.3667 23.8279L75.457 28.0041L77.5451 30.4589L82.4548 26.2827ZM91.2867 71.1188C91.4237 72.8934 92.9733 74.221 94.7479 74.084C96.5225 73.9471 97.8501 72.3974 97.7132 70.6228L91.2867 71.1188ZM77.5451 30.4589C88.1472 42.9229 90.159 56.5055 91.2867 71.1188L97.7132 70.6228C96.5683 55.7881 94.4647 40.4018 82.4548 26.2827L77.5451 30.4589Z" fill="#6A5032"/>
<path d="M116.481 22.8683C125.682 20.6533 129.338 17.5026 134.104 9.6568C138.157 36.2254 123.939 67.5838 93.5213 45.9221C94.953 32.9449 103.767 23.5342 116.481 22.8683Z" fill="url(#paint0_linear_7_70)" stroke="url(#paint1_linear_7_70)" stroke-width="0.730594" stroke-linecap="round"/>
<circle cx="50.4999" cy="188.871" r="1.5" fill="#FFD3A0"/>
<circle cx="66.4999" cy="188.871" r="1.5" fill="#FFD3A0"/>
<circle cx="58.4999" cy="183.871" r="1.5" fill="#FFD3A0"/>
<circle cx="123.5" cy="188.871" r="1.5" fill="#FFD3A0"/>
<circle cx="139.5" cy="188.871" r="1.5" fill="#FFD3A0"/>
<circle cx="131.5" cy="183.871" r="1.5" fill="#FFD3A0"/>
<path d="M14.8614 151.589C14.6694 151.583 14.4775 151.574 14.2858 151.562C15.3387 151.873 16.4925 152.253 17.7665 152.838L18.7982 153.312L18.2683 154.316C17.9226 154.971 17.3412 155.439 16.6813 155.795C16.1826 156.064 15.5922 156.295 14.9261 156.503C18.3449 156.527 21.6303 156.401 24.8535 156.246C25.6887 156.205 26.5206 156.163 27.3501 156.12C32.272 155.869 37.1083 155.623 42.0383 155.839C51.4734 156.253 61.2467 158.36 72.9902 165.243C72.1168 164.265 71.5505 163.537 71.1401 162.89L69.8085 160.789L72.251 161.26L81.2883 163.004C78.987 161.505 76.9008 160.054 75.1218 158.783C73.9652 157.957 72.935 157.206 72.063 156.569C71.8087 156.384 71.5678 156.208 71.3412 156.043C70.3137 155.295 69.6222 154.803 69.2574 154.588C64.0569 151.52 59.6249 149.371 54.2421 147.954C48.8475 146.534 42.4436 145.834 33.2918 145.737C31.0373 145.713 28.7319 145.972 26.4247 146.248C26.2846 146.265 26.1444 146.282 26.0041 146.299C24.1194 146.526 22.2257 146.754 20.4326 146.809C20.6828 146.821 20.9346 146.832 21.1878 146.843C21.2964 146.848 21.4053 146.853 21.5144 146.858C23.0082 146.925 24.5964 147.012 25.9384 147.454L29.1932 148.526L25.9092 149.504C21.9973 150.669 18.4372 151.694 14.8614 151.589Z" fill="#6A5032" stroke="#6A5032" stroke-width="2.14851" stroke-linecap="round"/>
<path d="M174.874 151.589C175.066 151.583 175.258 151.574 175.449 151.562C174.396 151.873 173.243 152.253 171.969 152.838L170.937 153.312L171.467 154.316C171.813 154.971 172.394 155.439 173.054 155.795C173.553 156.064 174.143 156.295 174.809 156.503C171.39 156.527 168.105 156.401 164.882 156.246C164.046 156.205 163.215 156.163 162.385 156.12C157.463 155.869 152.627 155.623 147.697 155.839C138.262 156.253 128.488 158.36 116.745 165.243C117.618 164.265 118.185 163.537 118.595 162.89L119.927 160.789L117.484 161.26L108.447 163.004C110.748 161.505 112.834 160.054 114.613 158.783C115.77 157.957 116.8 157.206 117.672 156.569C117.926 156.384 118.167 156.208 118.394 156.043C119.421 155.295 120.113 154.803 120.478 154.588C125.678 151.52 130.11 149.371 135.493 147.954C140.888 146.534 147.292 145.834 156.443 145.737C158.698 145.713 161.003 145.972 163.31 146.248C163.451 146.265 163.591 146.282 163.731 146.299C165.616 146.526 167.509 146.754 169.303 146.809C169.052 146.821 168.801 146.832 168.547 146.843C168.439 146.848 168.33 146.853 168.221 146.858C166.727 146.925 165.139 147.012 163.797 147.454L160.542 148.526L163.826 149.504C167.738 150.669 171.298 151.694 174.874 151.589Z" fill="#6A5032" stroke="#6A5032" stroke-width="2.14851" stroke-linecap="round"/>
<defs>
<linearGradient id="paint0_linear_7_70" x1="131.781" y1="8.22494" x2="104.348" y2="52.7441" gradientUnits="userSpaceOnUse">
<stop stop-color="#5E7B57"/>
<stop offset="1" stop-color="#85B678"/>
</linearGradient>
<linearGradient id="paint1_linear_7_70" x1="131.781" y1="8.22494" x2="104.348" y2="52.7441" gradientUnits="userSpaceOnUse">
<stop stop-color="#5E7B57"/>
<stop offset="1" stop-color="#85B678"/>
</linearGradient>
</defs>
</svg>
