<svg width="35" height="31" viewBox="0 0 35 31" fill="none" xmlns="http://www.w3.org/2000/svg">
<path d="M16.4185 29.3541L6.63926 20.6406C5.32283 19.3869 2.81534 16.754 2.12578 12.3659C1.75832 9.38033 2.19566 7.16284 3.44223 5.34491C4.94671 3.15086 7.07808 2.21055 9.4602 2.02249C11.2154 1.88391 13.0595 2.39861 14.3498 3.21354C15.5409 3.96578 18.271 6.81676 19.1763 8.26873" stroke="#5DCBDC" stroke-width="2.5" stroke-linecap="round" stroke-linejoin="round"/>
<path d="M28.4544 20.6406L29.3165 21.5458C29.3065 21.5553 29.2963 21.5647 29.286 21.5739L28.4544 20.6406ZM32.9679 12.3659L34.2085 12.5186C34.2068 12.5324 34.2049 12.5462 34.2028 12.5599L32.9679 12.3659ZM31.6515 5.34491L32.6824 4.638L32.6824 4.638L31.6515 5.34491ZM25.6335 2.02249L25.7319 0.776363L25.7319 0.776363L25.6335 2.02249ZM20.7439 3.21354L20.0764 2.15668L20.0764 2.15668L20.7439 3.21354ZM16.7265 9.11815C16.3613 9.70396 15.5903 9.88276 15.0045 9.5175C14.4187 9.15224 14.2399 8.38124 14.6051 7.79543L16.7265 9.11815ZM23.5648 24.9974L22.7332 24.0641L22.7332 24.0641L23.5648 24.9974ZM27.5924 19.7354C28.838 18.5491 31.1073 16.154 31.7331 12.1718L34.2028 12.5599C33.4494 17.354 30.7037 20.2246 29.3165 21.5458L27.5924 19.7354ZM31.7273 12.2132C32.0695 9.43251 31.6462 7.54761 30.6205 6.05182L32.6824 4.638C34.1498 6.77807 34.6012 9.32814 34.2085 12.5186L31.7273 12.2132ZM30.6205 6.05182C29.3718 4.23067 27.6223 3.43338 25.5351 3.26861L25.7319 0.776363C28.409 0.987712 30.9222 2.07104 32.6824 4.638L30.6205 6.05182ZM25.5351 3.26861C24.059 3.15208 22.4823 3.59405 21.4114 4.2704L20.0764 2.15668C21.5861 1.20316 23.6975 0.615754 25.7319 0.776363L25.5351 3.26861ZM21.4114 4.2704C20.9546 4.55887 20.0027 5.40751 18.9935 6.44453C17.9937 7.47198 17.1033 8.51387 16.7265 9.11815L14.6051 7.79543C15.1337 6.94774 16.1868 5.74412 17.2019 4.701C18.2076 3.66745 19.3421 2.62045 20.0764 2.15668L21.4114 4.2704ZM22.7332 24.0641L27.6229 19.7073L29.286 21.5739L24.3964 25.9306L22.7332 24.0641ZM21.5108 25.1533L22.7332 24.0641L24.3964 25.9306L23.174 27.0198L21.5108 25.1533Z" fill="#5DCBDC"/>
<path d="M22.3111 26.0944L22.5618 18.4465M22.3111 26.0944L22.5618 18.4465" stroke="#5DCBDC" stroke-width="2.5" stroke-linecap="round" stroke-linejoin="round"/>
<path d="M22.3026 26.1363L30.015 26.3064M22.3026 26.1363L30.015 26.3064" stroke="#5DCBDC" stroke-width="2.5" stroke-linecap="round" stroke-linejoin="round"/>
<path d="M18.4868 7.391C18.9382 7.67583 19.5856 8.85381 19.773 9.35365C19.9604 9.85348 19.979 10.4009 19.8261 10.9123C19.6732 11.4238 19.357 11.8711 18.926 12.186C18.495 12.5009 17.9727 12.6661 17.439 12.6563C16.9053 12.6466 16.3894 12.4624 15.9702 12.1319C15.551 11.8014 15.2515 11.3428 15.1174 10.8261C14.9833 10.3095 15.0219 9.76307 15.2275 9.27043C15.4331 8.7778 15.8938 7.90986 16.3554 7.64175" stroke="#5DCBDC" stroke-width="2.5"/>
</svg>
