<svg width="35" height="35" viewBox="0 0 35 35" fill="none" xmlns="http://www.w3.org/2000/svg">
<path fill-rule="evenodd" clip-rule="evenodd" d="M17.4998 4.37495C17.6923 4.37495 17.8833 4.37495 18.0729 4.37495C14.2071 7.96706 13.4573 13.8072 16.2904 18.2593C19.1235 22.7115 24.7316 24.5059 29.6229 22.5254C27.0961 28.6053 20.4556 31.8723 14.097 30.1636C7.73837 28.455 3.62971 22.2997 4.49065 15.7721C5.35158 9.24445 10.9156 4.36487 17.4998 4.36328V4.37495Z" stroke="#44474A" stroke-width="2" stroke-linecap="round" stroke-linejoin="round"/>
<path d="M24.7917 5.83301C24.7917 7.44384 26.0975 8.74967 27.7083 8.74967C26.0975 8.74967 24.7917 10.0555 24.7917 11.6663C24.7917 10.0555 23.4858 8.74967 21.875 8.74967C23.4858 8.74967 24.7917 7.44384 24.7917 5.83301" stroke="#44474A" stroke-width="2" stroke-linecap="round" stroke-linejoin="round"/>
<path d="M27.7085 15.0413C27.1562 15.0413 26.7085 15.4891 26.7085 16.0413C26.7085 16.5936 27.1562 17.0413 27.7085 17.0413V15.0413ZM30.6252 17.0413C31.1774 17.0413 31.6252 16.5936 31.6252 16.0413C31.6252 15.4891 31.1774 15.0413 30.6252 15.0413V17.0413ZM30.1668 14.583C30.1668 14.0307 29.7191 13.583 29.1668 13.583C28.6145 13.583 28.1668 14.0307 28.1668 14.583H30.1668ZM28.1668 17.4997C28.1668 18.052 28.6145 18.4997 29.1668 18.4997C29.7191 18.4997 30.1668 18.052 30.1668 17.4997H28.1668ZM27.7085 17.0413H30.6252V15.0413H27.7085V17.0413ZM28.1668 14.583V17.4997H30.1668V14.583H28.1668Z" fill="#44474A"/>
</svg>
