<svg width="192" height="206" viewBox="0 0 192 206" fill="none" xmlns="http://www.w3.org/2000/svg">
<path d="M191.95 113.56C191.95 164.613 146.812 192.084 98.4504 206C51.163 191.09 4.9504 164.613 4.9504 113.56C4.9504 62.5072 46.8118 41 98.4504 41C150.089 41 191.95 62.5072 191.95 113.56Z" fill="#FF7E86"/>
<path d="M191.95 113.56C191.95 164.613 146.812 192.084 98.4504 206C51.163 191.09 4.9504 164.613 4.9504 113.56C4.9504 62.5072 46.8118 41 98.4504 41C150.089 41 191.95 62.5072 191.95 113.56Z" fill="#FF7E86"/>
<path d="M191.95 113.56C191.95 164.613 146.812 192.084 98.4504 206C51.163 191.09 4.9504 164.613 4.9504 113.56C4.9504 62.5072 46.8118 41 98.4504 41C150.089 41 191.95 62.5072 191.95 113.56Z" fill="#ED666E"/>
<path d="M191.95 113.886C191.95 158.132 146.812 181.94 98.4504 194C51.163 181.078 4.9504 158.132 4.9504 113.886C4.9504 69.6396 46.8118 51 98.4504 51C150.089 51 191.95 69.6396 191.95 113.886Z" fill="#FF7E86"/>
<path d="M191.95 113.886C191.95 158.132 146.812 181.94 98.4504 194C51.163 181.078 4.9504 158.132 4.9504 113.886C4.9504 69.6396 46.8118 51 98.4504 51C150.089 51 191.95 69.6396 191.95 113.886Z" fill="#FF7E86"/>
<path d="M191.95 113.886C191.95 158.132 146.812 181.94 98.4504 194C51.163 181.078 4.9504 158.132 4.9504 113.886C4.9504 69.6396 46.8118 51 98.4504 51C150.089 51 191.95 69.6396 191.95 113.886Z" fill="#FF888F"/>
<ellipse rx="18.5235" ry="11.0841" transform="matrix(0.970554 -0.240884 0.277885 0.960614 161.711 149.36)" fill="#FFC1C9"/>
<ellipse rx="18.5235" ry="11.0841" transform="matrix(-0.970554 -0.240884 -0.277885 0.960614 35.8004 149.36)" fill="#FFC1C9"/>
<ellipse rx="24.1808" ry="19.3446" transform="matrix(-0.993213 -0.11631 -0.11631 0.993213 45.4469 124.871)" fill="#F8F8F8"/>
<path d="M29.5959 123.015C28.372 133.467 34.1633 142.54 42.2925 143.492C50.4217 144.444 58.1527 136.954 59.3766 126.503C60.6005 116.051 54.8092 106.978 46.68 106.026C38.5507 105.074 30.8198 112.564 29.5959 123.015Z" fill="url(#paint0_linear_7_237)" stroke="url(#paint1_linear_7_237)" stroke-width="0.967231"/>
<path d="M24.8677 100.416C23.906 99.8787 23.051 99.1926 22.2522 98.312C22.6693 99.5219 23.1033 100.505 23.5795 101.311C24.6494 103.122 25.9348 104.042 27.859 104.58L30.83 105.412L27.9159 106.425C24.2434 107.702 21.266 107.731 18.2556 106.702C16.4901 106.098 14.7322 105.135 12.8336 103.897C13.5793 104.897 14.3034 105.709 15.0526 106.398C16.6163 107.836 18.3403 108.786 20.7273 109.755L22.0539 110.293L21.4227 110.947C28.9919 106.689 37.209 104.718 45.0389 105.368C54.4647 106.152 63.2619 110.733 69.6065 119.571L68.9847 116.253L68.5348 113.853L70.5063 115.294L74.0027 117.851C73.5692 117.204 73.148 116.597 72.7469 116.039C71.5391 114.36 70.5549 113.182 69.9856 112.668C62.0907 105.539 51.5192 100.606 34.3167 102.501L34.2126 102.513L34.1085 102.502C30.1769 102.084 27.2511 101.747 24.8677 100.416Z" fill="#6A3243" stroke="#6A3243" stroke-width="1.93446" stroke-linecap="round"/>
<path d="M40.4489 130.129C40.0972 133.133 41.8439 135.649 44.1532 135.919C46.4624 136.189 48.7432 134.145 49.0949 131.142C49.4467 128.138 47.6999 125.622 45.3907 125.352C43.0814 125.081 40.8007 127.125 40.4489 130.129Z" fill="#FFC1C9" stroke="url(#paint2_linear_7_237)" stroke-width="0.967231"/>
<path d="M35.6195 115.93C35.392 117.872 36.5226 119.444 37.9476 119.611C39.3726 119.778 40.8357 118.51 41.0632 116.567C41.2907 114.625 40.1601 113.053 38.7351 112.886C37.3101 112.719 35.847 113.987 35.6195 115.93Z" fill="#FFC1C9" stroke="url(#paint3_linear_7_237)" stroke-width="0.967231"/>
<path d="M69.8267 100.723C65.5987 104.763 63.0858 106.158 58.0099 105.02L62.2437 108.306C65.6144 107.006 69.8267 103.946 69.8267 100.723Z" fill="#6A3243" stroke="#6A3243" stroke-width="1.26383" stroke-linecap="round"/>
<ellipse rx="24.1808" ry="19.3446" transform="matrix(-0.999814 0.0192761 0.0192761 0.999814 152.255 124.282)" fill="#F8F8F8"/>
<path d="M136.298 124.589C136.501 135.11 143.468 143.316 151.651 143.158C159.834 143 166.48 134.532 166.277 124.011C166.074 113.49 159.107 105.285 150.924 105.443C142.741 105.601 136.095 114.068 136.298 124.589Z" fill="url(#paint4_linear_7_237)" stroke="url(#paint5_linear_7_237)" stroke-width="0.967231"/>
<path d="M128.553 102.839C127.527 102.437 126.587 101.873 125.676 101.108C126.254 102.251 126.817 103.166 127.398 103.9C128.703 105.549 130.101 106.287 132.081 106.56L135.137 106.981L132.387 108.38C128.921 110.143 125.975 110.574 122.853 109.962C121.022 109.603 119.15 108.887 117.101 107.918C117.975 108.807 118.803 109.514 119.638 110.095C121.382 111.308 123.219 112.016 125.715 112.652L127.103 113.006L126.257 114.161L125.134 115.695C133.699 109.275 142.428 105.505 150.797 105.06C159.785 104.583 168.227 107.947 175.462 115.722L174.408 112.555L173.637 110.238L175.786 111.399L179.596 113.459C179.079 112.876 178.58 112.332 178.107 111.834C176.683 110.333 175.548 109.3 174.914 108.868C166.127 102.874 154.985 99.4173 138.197 103.625L138.096 103.651L137.991 103.654C134.039 103.772 131.095 103.835 128.553 102.839Z" fill="#6A3243" stroke="#6A3243" stroke-width="1.93446" stroke-linecap="round"/>
<path d="M148.015 130.168C148.073 133.192 150.144 135.448 152.469 135.403C154.793 135.358 156.776 133.024 156.718 130C156.66 126.976 154.588 124.72 152.264 124.765C149.939 124.81 147.956 127.144 148.015 130.168Z" fill="#FFC1C9" stroke="url(#paint6_linear_7_237)" stroke-width="0.967231"/>
<path d="M141.307 116.753C141.344 118.709 142.677 120.113 144.112 120.085C145.546 120.058 146.824 118.603 146.787 116.648C146.749 114.692 145.416 113.288 143.981 113.316C142.547 113.344 141.269 114.798 141.307 116.753Z" fill="#FFC1C9" stroke="url(#paint7_linear_7_237)" stroke-width="0.967231"/>
<path d="M180.698 100.723C176.47 104.763 173.957 106.158 168.881 105.02L173.115 108.306C176.486 107.006 180.698 103.946 180.698 100.723Z" fill="#6A3243" stroke="#6A3243" stroke-width="1.26383" stroke-linecap="round"/>
<path d="M42.9504 58C54.4512 49.6846 66.7136 46.3002 82.9104 42L116.39 43C128.27 45 139.767 48.5957 150.95 58C140.407 56.0905 130.175 53.3141 119.63 56L125.03 91L99.1104 66L73.1904 91L81.8304 56C67.4881 53.3815 59.0132 53.666 42.9504 58Z" fill="#ED666E" stroke="#ED666E" stroke-width="2.14851" stroke-linecap="round"/>
<path d="M113.946 41.8168C131.134 50.7723 149.396 64.703 142.95 90.5743L120.391 72.1658L97.8316 53.7574V33.8564C119.16 33.5771 123.08 26.9173 142.95 13.9554C135.431 28.8812 126.837 35.8465 113.946 41.8168Z" fill="url(#paint8_linear_7_237)" stroke="url(#paint9_linear_7_237)" stroke-width="2.14851" stroke-linecap="round"/>
<path d="M80.8943 41.8168C63.7063 50.7723 45.4439 64.703 51.8894 90.5743L74.4488 72.1658L97.0083 53.7574V33.8564C75.6796 33.5771 71.7601 26.9173 51.8894 13.9554C59.4092 28.8812 68.0033 35.8465 80.8943 41.8168Z" fill="url(#paint10_linear_7_237)" stroke="url(#paint11_linear_7_237)" stroke-width="2.14851" stroke-linecap="round"/>
<path d="M85.4052 2.9119L83.3171 0.457089L78.4075 4.63329L80.4956 7.0881L85.4052 2.9119ZM94.7372 41.248C94.8741 43.0226 96.4238 44.3502 98.1984 44.2132C99.973 44.0763 101.301 42.5266 101.164 40.752L94.7372 41.248ZM80.4956 7.0881C86.0249 13.5884 89.2541 18.6052 91.2709 23.6577C93.2885 28.7119 94.1789 34.0133 94.7372 41.248L101.164 40.752C100.586 33.2627 99.629 27.2099 97.2572 21.2681C94.8846 15.3245 91.1819 9.70315 85.4052 2.9119L80.4956 7.0881Z" fill="#5E7B57"/>
<circle cx="126.5" cy="164.5" r="1.5" fill="#FFC1C9"/>
<circle cx="142.5" cy="164.5" r="1.5" fill="#FFC1C9"/>
<circle cx="134.5" cy="159.5" r="1.5" fill="#FFC1C9"/>
<circle cx="53.4999" cy="164.5" r="1.5" fill="#FFC1C9"/>
<circle cx="69.4999" cy="164.5" r="1.5" fill="#FFC1C9"/>
<circle cx="61.4999" cy="159.5" r="1.5" fill="#FFC1C9"/>
<defs>
<linearGradient id="paint0_linear_7_237" x1="46.7362" y1="105.546" x2="42.2363" y2="143.972" gradientUnits="userSpaceOnUse">
<stop stop-color="#ED666E"/>
<stop offset="1" stop-color="#FF9BA1"/>
</linearGradient>
<linearGradient id="paint1_linear_7_237" x1="46.7362" y1="105.546" x2="42.2363" y2="143.972" gradientUnits="userSpaceOnUse">
<stop stop-color="#6A3243"/>
<stop offset="1" stop-color="#FF9BA1"/>
</linearGradient>
<linearGradient id="paint2_linear_7_237" x1="45.4469" y1="124.871" x2="44.0969" y2="136.399" gradientUnits="userSpaceOnUse">
<stop stop-color="#ED666E"/>
<stop offset="1" stop-color="#ED666E" stop-opacity="0"/>
</linearGradient>
<linearGradient id="paint3_linear_7_237" x1="38.7913" y1="112.406" x2="37.8914" y2="120.091" gradientUnits="userSpaceOnUse">
<stop stop-color="#ED666E"/>
<stop offset="1" stop-color="#ED666E" stop-opacity="0"/>
</linearGradient>
<linearGradient id="paint4_linear_7_237" x1="150.915" y1="104.959" x2="151.66" y2="143.641" gradientUnits="userSpaceOnUse">
<stop stop-color="#ED666E"/>
<stop offset="1" stop-color="#FF9BA1"/>
</linearGradient>
<linearGradient id="paint5_linear_7_237" x1="150.915" y1="104.959" x2="151.66" y2="143.641" gradientUnits="userSpaceOnUse">
<stop stop-color="#6A3243"/>
<stop offset="1" stop-color="#FF9BA1"/>
</linearGradient>
<linearGradient id="paint6_linear_7_237" x1="152.254" y1="124.282" x2="152.478" y2="135.886" gradientUnits="userSpaceOnUse">
<stop stop-color="#ED666E"/>
<stop offset="1" stop-color="#ED666E" stop-opacity="0"/>
</linearGradient>
<linearGradient id="paint7_linear_7_237" x1="143.972" y1="112.832" x2="144.121" y2="120.569" gradientUnits="userSpaceOnUse">
<stop stop-color="#ED666E"/>
<stop offset="1" stop-color="#ED666E" stop-opacity="0"/>
</linearGradient>
<linearGradient id="paint8_linear_7_237" x1="121.054" y1="13.9554" x2="121.054" y2="90.5743" gradientUnits="userSpaceOnUse">
<stop stop-color="#5E7B57"/>
<stop offset="1" stop-color="#85B678"/>
</linearGradient>
<linearGradient id="paint9_linear_7_237" x1="121.054" y1="13.9554" x2="121.054" y2="90.5743" gradientUnits="userSpaceOnUse">
<stop stop-color="#5E7B57"/>
<stop offset="1" stop-color="#85B678"/>
</linearGradient>
<linearGradient id="paint10_linear_7_237" x1="73.7863" y1="13.9554" x2="73.7863" y2="90.5743" gradientUnits="userSpaceOnUse">
<stop stop-color="#5E7B57"/>
<stop offset="1" stop-color="#85B678"/>
</linearGradient>
<linearGradient id="paint11_linear_7_237" x1="73.7863" y1="13.9554" x2="73.7863" y2="90.5743" gradientUnits="userSpaceOnUse">
<stop stop-color="#5E7B57"/>
<stop offset="1" stop-color="#85B678"/>
</linearGradient>
</defs>
</svg>
