<svg width="205" height="168" viewBox="0 0 205 168" fill="none" xmlns="http://www.w3.org/2000/svg">
<ellipse cx="102.055" cy="83.7921" rx="91.3119" ry="83.7921" fill="#68B4E7"/>
<ellipse cx="102.055" cy="78.4208" rx="91.3119" ry="78.4208" fill="#70C6FF"/>
<ellipse cx="103" cy="32.7134" rx="58" ry="32.5" fill="#92D3FF"/>
<ellipse cx="102" cy="29.2134" rx="38" ry="22" fill="url(#paint0_linear_7_110)"/>
<path d="M100.5 10.2134L106.97 20.7575L120.948 22.6511L110.969 31.0613L113.137 42.7757L100.5 37.4294L87.8627 42.7757L90.0309 31.0613L80.0524 22.6511L94.0298 20.7575L100.5 10.2134Z" fill="#70C6FF"/>
<ellipse cx="153.6" cy="105.834" rx="26.8564" ry="21.4851" transform="rotate(-9.26352 153.6 105.834)" fill="#F8F8F8"/>
<path d="M171.094 102.98C172.976 114.515 167.004 124.872 158.033 126.336C149.061 127.799 140.108 119.876 138.227 108.341C136.345 96.8063 142.316 86.4493 151.288 84.986C160.26 83.5227 169.213 91.4455 171.094 102.98Z" fill="url(#paint1_linear_7_110)" stroke="url(#paint2_linear_7_110)" stroke-width="1.07426"/>
<path d="M175.208 77.6691C176.249 77.0251 177.163 76.221 178.005 75.204C177.603 76.5673 177.171 77.6803 176.683 78.5983C175.586 80.6609 174.206 81.7456 172.098 82.4396L168.843 83.5113L172.127 84.4896C176.266 85.7225 179.571 85.6053 182.86 84.3126C184.788 83.5545 186.69 82.3982 188.735 80.9295C187.958 82.0753 187.195 83.0127 186.398 83.815C184.735 85.4893 182.87 86.6297 180.27 87.8236L178.825 88.4872L179.98 89.5801L182.11 91.5962C170.801 86.0888 160.503 83.2964 151.327 84.3281C141.583 85.4238 133.293 90.8038 126.502 101.352L127.053 97.4504L127.432 94.7644L125.317 96.4626L122.307 98.8786C124.163 96.41 125.917 94.5819 126.744 93.764C130.986 89.5717 135.724 85.9501 141.766 83.5219C147.807 81.0941 155.216 79.8341 164.829 80.4565L164.945 80.464L165.06 80.4465C169.401 79.786 172.631 79.2653 175.208 77.6691Z" fill="#324C6A" stroke="#324C6A" stroke-width="2.14851" stroke-linecap="round"/>
<path d="M159.409 111.417C159.95 114.732 158.137 117.611 155.589 118.027C153.04 118.442 150.407 116.289 149.867 112.973C149.326 109.658 151.138 106.78 153.687 106.364C156.235 105.948 158.868 108.102 159.409 111.417Z" fill="#9AD7FF" stroke="url(#paint3_linear_7_110)" stroke-width="1.07426"/>
<path d="M164.056 95.4207C164.406 97.5648 163.23 99.365 161.657 99.6215C160.085 99.8781 158.398 98.5447 158.048 96.4006C157.698 94.2566 158.874 92.4563 160.447 92.1998C162.02 91.9433 163.706 93.2767 164.056 95.4207Z" fill="#9AD7FF" stroke="url(#paint4_linear_7_110)" stroke-width="1.07426"/>
<ellipse rx="26.8564" ry="21.4851" transform="matrix(-0.986958 -0.160975 -0.160975 0.986958 51.1333 105.834)" fill="#F8F8F8"/>
<path d="M33.6392 102.98C31.7579 114.515 37.7291 124.872 46.701 126.336C55.6728 127.799 64.6255 119.876 66.5069 108.341C68.3883 96.8063 62.4171 86.4493 53.4452 84.986C44.4733 83.5227 35.5206 91.4455 33.6392 102.98Z" fill="url(#paint5_linear_7_110)" stroke="url(#paint6_linear_7_110)" stroke-width="1.07426"/>
<path d="M29.525 77.6691C28.4849 77.0251 27.5705 76.221 26.7283 75.204C27.1305 76.5673 27.5628 77.6803 28.0508 78.5983C29.1472 80.6609 30.5274 81.7456 32.6353 82.4396L35.89 83.5113L32.606 84.4896C28.4673 85.7225 25.1624 85.6053 21.8738 84.3126C19.9452 83.5545 18.043 82.3982 15.9984 80.9295C16.7758 82.0753 17.5385 83.0127 18.3353 83.815C19.9982 85.4893 21.8634 86.6297 24.4634 87.8236L25.9083 88.4872L24.7535 89.5801L22.6234 91.5962C33.9324 86.0888 44.2306 83.2964 53.4067 84.3281C63.1509 85.4238 71.4404 90.8038 78.231 101.352L77.6806 97.4504L77.3017 94.7644L79.4169 96.4626L82.426 98.8786C80.5706 96.41 78.8167 94.5819 77.9892 93.764C73.7475 89.5717 69.0099 85.9501 62.9675 83.5219C56.9262 81.0941 49.5175 79.8341 39.9044 80.4565L39.7883 80.464L39.6734 80.4465C35.332 79.786 32.1027 79.2653 29.525 77.6691Z" fill="#324C6A" stroke="#324C6A" stroke-width="2.14851" stroke-linecap="round"/>
<path d="M45.3246 111.417C44.7839 114.732 46.596 117.611 49.1446 118.027C51.6933 118.442 54.3262 116.289 54.8669 112.973C55.4076 109.658 53.5955 106.78 51.0469 106.364C48.4983 105.948 45.8654 108.102 45.3246 111.417Z" fill="#9AD7FF" stroke="url(#paint7_linear_7_110)" stroke-width="1.07426"/>
<path d="M40.6773 95.4207C40.3276 97.5648 41.5034 99.365 43.0761 99.6215C44.6488 99.8781 46.3357 98.5447 46.6854 96.4006C47.0351 94.2566 45.8593 92.4563 44.2866 92.1998C42.7139 91.9433 41.027 93.2767 40.6773 95.4207Z" fill="#9AD7FF" stroke="url(#paint8_linear_7_110)" stroke-width="1.07426"/>
<circle cx="102" cy="140" r="6" fill="#324C6A"/>
<defs>
<linearGradient id="paint0_linear_7_110" x1="102" y1="7.21338" x2="102" y2="51.2134" gradientUnits="userSpaceOnUse">
<stop stop-color="#324C6A"/>
<stop offset="1" stop-color="#324C6A"/>
</linearGradient>
<linearGradient id="paint1_linear_7_110" x1="151.202" y1="84.4559" x2="158.119" y2="126.866" gradientUnits="userSpaceOnUse">
<stop stop-color="#457DBF"/>
<stop offset="1" stop-color="#70C6FF"/>
</linearGradient>
<linearGradient id="paint2_linear_7_110" x1="151.202" y1="84.4559" x2="158.119" y2="126.866" gradientUnits="userSpaceOnUse">
<stop stop-color="#324C6A"/>
<stop offset="1" stop-color="#70C6FF"/>
</linearGradient>
<linearGradient id="paint3_linear_7_110" x1="153.6" y1="105.834" x2="155.675" y2="118.557" gradientUnits="userSpaceOnUse">
<stop stop-color="#457DBF"/>
<stop offset="1" stop-color="#70C6FF" stop-opacity="0"/>
</linearGradient>
<linearGradient id="paint4_linear_7_110" x1="160.36" y1="91.6697" x2="161.744" y2="100.152" gradientUnits="userSpaceOnUse">
<stop stop-color="#457DBF"/>
<stop offset="1" stop-color="#70C6FF" stop-opacity="0"/>
</linearGradient>
<linearGradient id="paint5_linear_7_110" x1="53.5316" y1="84.4559" x2="46.6145" y2="126.866" gradientUnits="userSpaceOnUse">
<stop stop-color="#457DBF"/>
<stop offset="1" stop-color="#70C6FF"/>
</linearGradient>
<linearGradient id="paint6_linear_7_110" x1="53.5316" y1="84.4559" x2="46.6145" y2="126.866" gradientUnits="userSpaceOnUse">
<stop stop-color="#324C6A"/>
<stop offset="1" stop-color="#70C6FF"/>
</linearGradient>
<linearGradient id="paint7_linear_7_110" x1="51.1333" y1="105.834" x2="49.0582" y2="118.557" gradientUnits="userSpaceOnUse">
<stop stop-color="#457DBF"/>
<stop offset="1" stop-color="#70C6FF" stop-opacity="0"/>
</linearGradient>
<linearGradient id="paint8_linear_7_110" x1="44.3731" y1="91.6697" x2="42.9896" y2="100.152" gradientUnits="userSpaceOnUse">
<stop stop-color="#457DBF"/>
<stop offset="1" stop-color="#70C6FF" stop-opacity="0"/>
</linearGradient>
</defs>
</svg>
