<svg width="207" height="227" viewBox="0 0 207 227" fill="none" xmlns="http://www.w3.org/2000/svg">
<ellipse cx="103.054" cy="142.579" rx="91.3119" ry="83.7921" fill="#F8A340"/>
<ellipse cx="103.054" cy="137.207" rx="91.3119" ry="78.4208" fill="#FFBD70"/>
<circle cx="103" cy="194" r="6" fill="#6A5032"/>
<path d="M26.5458 165.371C29.9185 171.004 35.0987 175.476 45.5458 178.871C41.5458 170.371 39.209 168.04 26.5458 165.371Z" fill="#6A5032" stroke="#6A5032" stroke-width="0.730594" stroke-linecap="round"/>
<path d="M33.7899 180.477C36.1484 176.962 38.1633 176.101 41.4726 175.597C40.0615 175.037 39.2943 174.672 37.9674 173.935C35.7875 175.379 33.7657 177.774 33.7899 180.477Z" fill="#6A5032" stroke="#6A5032" stroke-width="0.914841" stroke-linecap="round"/>
<path d="M27.6637 174.905C29.8034 171.716 31.6313 170.936 34.6335 170.478C33.3533 169.97 32.6573 169.639 31.4536 168.97C29.4759 170.28 27.6417 172.453 27.6637 174.905Z" fill="#6A5032" stroke="#6A5032" stroke-width="0.829943" stroke-linecap="round"/>
<ellipse rx="26.8564" ry="21.4851" transform="matrix(-0.986958 -0.160975 -0.160975 0.986958 51.9456 156.557)" fill="#F8F8F8"/>
<path d="M34.4515 153.703C32.5702 165.238 38.5414 175.595 47.5133 177.058C56.4851 178.522 65.4378 170.599 67.3192 159.064C69.2006 147.529 63.2294 137.172 54.2575 135.709C45.2856 134.245 36.3329 142.168 34.4515 153.703Z" fill="url(#paint0_linear_7_272)" stroke="url(#paint1_linear_7_272)" stroke-width="1.07426"/>
<path d="M30.3373 128.392C29.2972 127.748 28.3828 126.944 27.5406 125.927C27.9428 127.29 28.3751 128.403 28.8631 129.321C29.9595 131.384 31.3397 132.468 33.4476 133.162L36.7023 134.234L33.4183 135.212C29.2796 136.445 25.9747 136.328 22.6861 135.035C20.7575 134.277 18.8553 133.121 16.8107 131.652C17.5881 132.798 18.3508 133.736 19.1476 134.538C20.8105 136.212 22.6757 137.353 25.2757 138.546L27.0621 139.367L27.0351 139.384C37.2555 135.792 46.5568 134.057 54.8185 134.974C64.3303 136.031 72.3578 140.589 78.7607 149.594L78.5011 148.223L77.9596 145.363L80.2292 147.185L83.9805 150.197C83.532 149.458 83.095 148.763 82.6779 148.124C81.4219 146.2 80.3889 144.845 79.7829 144.246C71.3805 135.941 59.8982 129.937 40.7167 131.179L40.6006 131.187L40.4857 131.169C36.1443 130.509 32.915 129.988 30.3373 128.392Z" fill="#6A5032" stroke="#6A5032" stroke-width="2.14851" stroke-linecap="round"/>
<path d="M46.1369 162.14C45.5962 165.455 47.4083 168.334 49.957 168.749C52.5056 169.165 55.1385 167.011 55.6792 163.696C56.2199 160.381 54.4078 157.502 51.8592 157.087C49.3106 156.671 46.6777 158.825 46.1369 162.14Z" fill="#FFD4A0" stroke="url(#paint2_linear_7_272)" stroke-width="1.07426"/>
<path d="M41.4896 146.144C41.1399 148.288 42.3157 150.088 43.8884 150.344C45.4611 150.601 47.148 149.268 47.4977 147.123C47.8474 144.979 46.6716 143.179 45.0989 142.923C43.5262 142.666 41.8393 143.999 41.4896 146.144Z" fill="#FFD4A0" stroke="url(#paint3_linear_7_272)" stroke-width="1.07426"/>
<path d="M180.426 165.371C177.053 171.004 171.873 175.476 161.426 178.871C165.426 170.371 167.762 168.04 180.426 165.371Z" fill="#6A5032" stroke="#6A5032" stroke-width="0.730594" stroke-linecap="round"/>
<path d="M173.182 180.477C170.823 176.962 168.808 176.101 165.499 175.597C166.91 175.037 167.677 174.672 169.004 173.935C171.184 175.379 173.206 177.774 173.182 180.477Z" fill="#6A5032" stroke="#6A5032" stroke-width="0.914841" stroke-linecap="round"/>
<path d="M179.308 174.905C177.168 171.716 175.34 170.936 172.338 170.478C173.618 169.97 174.314 169.639 175.518 168.97C177.495 170.28 179.33 172.453 179.308 174.905Z" fill="#6A5032" stroke="#6A5032" stroke-width="0.829943" stroke-linecap="round"/>
<ellipse cx="155.026" cy="156.557" rx="26.8564" ry="21.4851" transform="rotate(-9.26352 155.026 156.557)" fill="#F8F8F8"/>
<path d="M172.52 153.703C174.401 165.238 168.43 175.595 159.458 177.058C150.486 178.522 141.534 170.599 139.652 159.064C137.771 147.529 143.742 137.172 152.714 135.709C161.686 134.245 170.639 142.168 172.52 153.703Z" fill="url(#paint4_linear_7_272)" stroke="url(#paint5_linear_7_272)" stroke-width="1.07426"/>
<path d="M176.634 128.392C177.674 127.748 178.589 126.944 179.431 125.927C179.029 127.29 178.596 128.403 178.108 129.321C177.012 131.384 175.632 132.468 173.524 133.162L170.269 134.234L173.553 135.212C177.692 136.445 180.997 136.328 184.285 135.035C186.214 134.277 188.116 133.121 190.161 131.652C189.383 132.798 188.621 133.736 187.824 134.538C186.161 136.212 184.296 137.353 181.696 138.546L179.909 139.367L179.936 139.384C169.716 135.792 160.415 134.057 152.153 134.974C142.641 136.031 134.614 140.589 128.211 149.594L128.47 148.223L129.012 145.363L126.742 147.185L122.991 150.197C123.439 149.458 123.876 148.763 124.294 148.124C125.55 146.2 126.583 144.845 127.188 144.246C135.591 135.941 147.073 129.937 166.255 131.179L166.371 131.187L166.486 131.169C170.827 130.509 174.056 129.988 176.634 128.392Z" fill="#6A5032" stroke="#6A5032" stroke-width="2.14851" stroke-linecap="round"/>
<path d="M160.835 162.14C161.375 165.455 159.563 168.334 157.014 168.749C154.466 169.165 151.833 167.011 151.292 163.696C150.752 160.381 152.564 157.502 155.112 157.087C157.661 156.671 160.294 158.825 160.835 162.14Z" fill="#FFD4A0" stroke="url(#paint6_linear_7_272)" stroke-width="1.07426"/>
<path d="M165.482 146.144C165.832 148.288 164.656 150.088 163.083 150.344C161.51 150.601 159.823 149.268 159.474 147.123C159.124 144.979 160.3 143.179 161.873 142.923C163.445 142.666 165.132 143.999 165.482 146.144Z" fill="#FFD4A0" stroke="url(#paint7_linear_7_272)" stroke-width="1.07426"/>
<ellipse cx="103" cy="71.5" rx="15" ry="9.5" fill="#F8A340"/>
<ellipse rx="28.7497" ry="15.1114" transform="matrix(-0.922369 0.386309 0.386309 0.922369 60.3555 96.0446)" fill="#FFD4A0"/>
<path d="M90.4548 26.2827L88.3667 23.8279L83.457 28.0041L85.5451 30.4589L90.4548 26.2827ZM99.2867 71.1188C99.4237 72.8934 100.973 74.221 102.748 74.084C104.523 73.9471 105.85 72.3974 105.713 70.6228L99.2867 71.1188ZM85.5451 30.4589C96.1472 42.9229 98.159 56.5055 99.2867 71.1188L105.713 70.6228C104.568 55.7881 102.465 40.4018 90.4548 26.2827L85.5451 30.4589Z" fill="#6A5032"/>
<path d="M124.481 22.8683C133.682 20.6533 137.338 17.5026 142.104 9.6568C146.157 36.2254 131.939 67.5838 101.521 45.9221C102.953 32.9449 111.767 23.5342 124.481 22.8683Z" fill="url(#paint8_linear_7_272)" stroke="url(#paint9_linear_7_272)" stroke-width="0.730594" stroke-linecap="round"/>
<circle cx="58.4999" cy="188.871" r="1.5" fill="#FFD3A0"/>
<circle cx="74.4999" cy="188.871" r="1.5" fill="#FFD3A0"/>
<circle cx="66.4999" cy="183.871" r="1.5" fill="#FFD3A0"/>
<circle cx="131.5" cy="188.871" r="1.5" fill="#FFD3A0"/>
<circle cx="147.5" cy="188.871" r="1.5" fill="#FFD3A0"/>
<circle cx="139.5" cy="183.871" r="1.5" fill="#FFD3A0"/>
<defs>
<linearGradient id="paint0_linear_7_272" x1="54.3439" y1="135.179" x2="47.4268" y2="177.589" gradientUnits="userSpaceOnUse">
<stop stop-color="#F8A340"/>
<stop offset="1" stop-color="#FFD4A0"/>
</linearGradient>
<linearGradient id="paint1_linear_7_272" x1="54.3439" y1="135.179" x2="47.4268" y2="177.589" gradientUnits="userSpaceOnUse">
<stop stop-color="#6A5032"/>
<stop offset="1" stop-color="#FFBD70"/>
</linearGradient>
<linearGradient id="paint2_linear_7_272" x1="51.9456" y1="156.557" x2="49.8705" y2="169.28" gradientUnits="userSpaceOnUse">
<stop stop-color="#F8A340"/>
<stop offset="1" stop-color="#F8A340"/>
</linearGradient>
<linearGradient id="paint3_linear_7_272" x1="45.1854" y1="142.393" x2="43.8019" y2="150.874" gradientUnits="userSpaceOnUse">
<stop stop-color="#F8A340"/>
<stop offset="1" stop-color="#F8A340"/>
</linearGradient>
<linearGradient id="paint4_linear_7_272" x1="152.627" y1="135.179" x2="159.545" y2="177.589" gradientUnits="userSpaceOnUse">
<stop stop-color="#F8A340"/>
<stop offset="1" stop-color="#FFD4A0"/>
</linearGradient>
<linearGradient id="paint5_linear_7_272" x1="152.627" y1="135.179" x2="159.545" y2="177.589" gradientUnits="userSpaceOnUse">
<stop stop-color="#6A5032"/>
<stop offset="1" stop-color="#FFBD70"/>
</linearGradient>
<linearGradient id="paint6_linear_7_272" x1="155.026" y1="156.557" x2="157.101" y2="169.28" gradientUnits="userSpaceOnUse">
<stop stop-color="#F8A340"/>
<stop offset="1" stop-color="#F8A340"/>
</linearGradient>
<linearGradient id="paint7_linear_7_272" x1="161.786" y1="142.393" x2="163.17" y2="150.874" gradientUnits="userSpaceOnUse">
<stop stop-color="#F8A340"/>
<stop offset="1" stop-color="#F8A340"/>
</linearGradient>
<linearGradient id="paint8_linear_7_272" x1="139.781" y1="8.22494" x2="112.348" y2="52.7441" gradientUnits="userSpaceOnUse">
<stop stop-color="#5E7B57"/>
<stop offset="1" stop-color="#85B678"/>
</linearGradient>
<linearGradient id="paint9_linear_7_272" x1="139.781" y1="8.22494" x2="112.348" y2="52.7441" gradientUnits="userSpaceOnUse">
<stop stop-color="#5E7B57"/>
<stop offset="1" stop-color="#85B678"/>
</linearGradient>
</defs>
</svg>
