<svg width="63" height="64" viewBox="0 0 63 64" fill="none" xmlns="http://www.w3.org/2000/svg">
<path d="M10.9026 18.9997H18.7056C20.1421 18.9997 21.3066 17.8352 21.3066 16.3987V13.7977C21.3066 10.9247 23.6356 8.5957 26.5086 8.5957C29.3816 8.5957 31.7106 10.9247 31.7106 13.7977V16.3987C31.7106 17.8352 32.8751 18.9997 34.3116 18.9997H42.1146C43.5511 18.9997 44.7156 20.1642 44.7156 21.6007V29.4037C44.7156 30.8402 45.8801 32.0047 47.3166 32.0047H49.9176C52.7906 32.0047 55.1196 34.3337 55.1196 37.2067C55.1196 40.0797 52.7906 42.4087 49.9176 42.4087H47.3166C45.8801 42.4087 44.7156 43.5732 44.7156 45.0097V52.8127C44.7156 54.2492 43.5511 55.4137 42.1146 55.4137H34.3116C32.8751 55.4137 31.7106 54.2492 31.7106 52.8127V50.2117C31.7106 47.3387 29.3816 45.0097 26.5086 45.0097C23.6356 45.0097 21.3066 47.3387 21.3066 50.2117V52.8127C21.3066 54.2492 20.1421 55.4137 18.7056 55.4137H10.9026C9.46611 55.4137 8.30161 54.2492 8.30161 52.8127V45.0097C8.30161 43.5732 9.46611 42.4087 10.9026 42.4087H13.5036C16.3766 42.4087 18.7056 40.0797 18.7056 37.2067C18.7056 34.3337 16.3766 32.0047 13.5036 32.0047H10.9026C9.46611 32.0047 8.30161 30.8402 8.30161 29.4037V21.6007C8.30161 20.1642 9.46611 18.9997 10.9026 18.9997" stroke="#F8F8F8" stroke-width="5.202" stroke-linecap="round" stroke-linejoin="round"/>
</svg>
