<svg width="1438" height="958" viewBox="0 0 1438 958" fill="none" xmlns="http://www.w3.org/2000/svg">
<path opacity="0.1" d="M0 0H1438.5V608.5L1137 856H749L0 608.5V0Z" fill="#C4C4C4"/>
<rect x="706" y="931" width="647" height="27" rx="10" fill="#585858"/>
<path d="M912 896H943V928L907.5 926L912 896Z" fill="#B3B3B3"/>
<path d="M974 896H943V928L978.5 926L974 896Z" fill="#B3B3B3"/>
<rect x="930" y="896" width="35" height="29" fill="#B3B3B3"/>
<rect x="749" y="644" width="388" height="252" rx="7" fill="#282828"/>
<path d="M749 856H1137V889C1137 892.866 1133.87 896 1130 896H756C752.134 896 749 892.866 749 889V856Z" fill="#D6D6D6"/>
<rect x="879" y="925" width="127" height="6" fill="#DBDBDB"/>
<rect x="762" y="656" width="363" height="189" fill="#567479"/>
<circle cx="943" cy="876" r="7" fill="#282828"/>
<path d="M1225.52 858.891C1222.66 831.966 1214.77 817.279 1192.52 791.663" stroke="#4C5740" stroke-width="2.44465"/>
<path d="M1255.83 858.891C1257.53 838.819 1262.21 827.871 1275.39 808.775" stroke="#4C5740" stroke-width="2.44465"/>
<path d="M1236.33 862.557C1233.23 833.53 1234.35 797.328 1213.27 763.726" stroke="#4C5740" stroke-width="2.6355"/>
<path d="M1241.62 858.89C1244.49 831.965 1251.4 798.385 1270.96 767.216" stroke="#4C5740" stroke-width="2.44465"/>
<path d="M1173.65 787.249L1215.53 823.697L1216.21 822.922C1209.75 797.744 1197.01 787.814 1173.65 787.249Z" fill="#5F7547"/>
<path d="M1173.65 787.248L1215.53 823.697L1214.86 824.473C1189.03 821.556 1177.43 810.307 1173.65 787.248Z" fill="#7CA253"/>
<path d="M1202.04 732.061L1230.92 809.86L1232.36 809.325C1241.9 771.666 1232.29 749.518 1202.04 732.061Z" fill="#5F7547"/>
<path d="M1202.04 732.06L1230.92 809.859L1229.47 810.394C1197.67 788.085 1190.5 765.027 1202.04 732.06Z" fill="#7CA253"/>
<path d="M1277.38 735.877L1251.45 809.504L1252.81 809.984C1282.37 788.499 1288.75 766.7 1277.38 735.877Z" fill="#5F7547"/>
<path d="M1277.38 735.877L1251.45 809.504L1250.09 809.023C1240.51 773.757 1249.2 752.775 1277.38 735.877Z" fill="#7CA253"/>
<path d="M1297.26 783.596L1265.8 825.27L1266.57 825.852C1289.77 818.151 1298.25 805.549 1297.26 783.596Z" fill="#5F7547"/>
<path d="M1297.26 783.595L1265.8 825.269L1265.03 824.686C1266.07 800.265 1275.87 788.653 1297.26 783.595Z" fill="#7CA253"/>
<path d="M1200 831.437H1239V892.437H1200C1189.06 868.595 1188.85 855.297 1200 831.437Z" fill="#CDAA89"/>
<path d="M1278 831.437H1239V892.437H1278C1288.95 868.595 1289.15 855.297 1278 831.437Z" fill="#98785A"/>
<path d="M1166.36 910H1272.5V931H1166.36C1162.07 923.09 1161.69 918.523 1166.36 910Z" fill="#429292"/>
<path d="M1317.64 910H1211.5V931H1317.64C1321.93 923.09 1322.31 918.523 1317.64 910Z" fill="#429292"/>
<rect x="1174" y="911" width="1" height="19" fill="#47C4CC"/>
<rect x="1177" y="911" width="1" height="19" fill="#47C4CC"/>
<rect x="1306" y="911" width="1" height="19" fill="#47C4CC"/>
<rect x="1309" y="911" width="1" height="19" fill="#47C4CC"/>
<path d="M1175.93 892H1268.64V910.342H1175.93C1172.19 903.433 1171.86 899.444 1175.93 892Z" fill="#7B9D9B"/>
<path d="M1308.07 892H1215.36V910.342H1308.07C1311.81 903.433 1312.14 899.444 1308.07 892Z" fill="#7B9D9B"/>
<rect x="1182.61" y="892.874" width="0.873418" height="16.5949" fill="#4E8F84"/>
<rect x="1185.23" y="892.874" width="0.873418" height="16.5949" fill="#4E8F84"/>
<rect x="1297.9" y="892.874" width="0.873418" height="16.5949" fill="#4E8F84"/>
<rect x="1300.52" y="892.874" width="0.873418" height="16.5949" fill="#4E8F84"/>
<path d="M920 661.292C920 658.369 922.369 656 925.292 656H1120.71C1123.63 656 1126 658.369 1126 661.292V845H925.292C922.369 845 920 842.631 920 839.708V661.292Z" fill="#575965"/>
<path d="M770 667.292C770 664.369 772.369 662 775.292 662H921.708C924.631 662 927 664.369 927 667.292V833.71C927 836.632 924.632 839 921.71 839H775.292C772.369 839 770 836.631 770 833.708V667.292Z" fill="#B4B5B9"/>
<rect x="786" y="766" width="55" height="55" rx="5" fill="#CACACA"/>
<rect x="857" y="766" width="55" height="55" rx="5" fill="#CACACA"/>
<path d="M770 667.292C770 664.369 772.369 662 775.292 662H921.71C924.632 662 927 664.368 927 667.29V677H770V667.292Z" fill="#616269"/>
<path d="M901 661.292C901 658.369 903.369 656 906.292 656H938.708C941.631 656 944 658.369 944 661.292V845H906.292C903.369 845 901 842.631 901 839.708V661.292Z" fill="#464951"/>
<path d="M901 661.292C901 658.369 903.369 656 906.292 656H1126V671H901V661.292Z" fill="#3F4146"/>
<circle cx="911.704" cy="662.88" r="3.70447" fill="#FC605C"/>
<circle cx="781.704" cy="668.88" r="3.70447" fill="#FC605C"/>
<circle cx="923.347" cy="662.88" r="3.70447" fill="#FCBB40"/>
<circle cx="793.347" cy="668.88" r="3.70447" fill="#FCBB40"/>
<circle cx="934.99" cy="662.88" r="3.70447" fill="#34C648"/>
<circle cx="804.99" cy="668.88" r="3.70447" fill="#34C648"/>
<rect x="965" y="680" width="111" height="8" fill="#685B69"/>
<rect x="965" y="697" width="136" height="8" fill="#685B69"/>
<rect x="965" y="714" width="125" height="8" fill="#616778"/>
<rect x="965" y="731" width="92" height="8" fill="#616778"/>
<rect x="965" y="748" width="111" height="8" fill="#677171"/>
<rect x="965" y="765" width="136" height="8" fill="#677171"/>
<rect x="965" y="782" width="100" height="8" fill="#726A73"/>
<rect x="965" y="799" width="136" height="8" fill="#726A73"/>
<rect x="965" y="816" width="136" height="8" fill="#676B76"/>
<rect x="965" y="833" width="104" height="8" fill="#676B76"/>
<rect x="770" y="677" width="131" height="71" fill="#CACACA"/>
</svg>
