<svg width="207" height="227" viewBox="0 0 207 227" fill="none" xmlns="http://www.w3.org/2000/svg">
<ellipse cx="103.054" cy="142.579" rx="91.3119" ry="83.7921" fill="#F8A340"/>
<ellipse cx="103.054" cy="137.207" rx="91.3119" ry="78.4208" fill="#FFBD70"/>
<path d="M180 165.371C176.627 171.004 171.447 175.476 161 178.871C165 170.371 167.337 168.04 180 165.371Z" fill="#6A5032" stroke="#6A5032" stroke-width="0.730594" stroke-linecap="round"/>
<path d="M172.756 180.477C170.397 176.962 168.382 176.101 165.073 175.597C166.484 175.037 167.251 174.672 168.578 173.935C170.758 175.379 172.78 177.774 172.756 180.477Z" fill="#6A5032" stroke="#6A5032" stroke-width="0.914841" stroke-linecap="round"/>
<path d="M178.882 174.905C176.742 171.716 174.914 170.936 171.912 170.478C173.192 169.97 173.888 169.639 175.092 168.97C177.07 170.28 178.904 172.453 178.882 174.905Z" fill="#6A5032" stroke="#6A5032" stroke-width="0.829943" stroke-linecap="round"/>
<ellipse cx="154.6" cy="156.557" rx="26.8564" ry="21.4851" transform="rotate(-9.26352 154.6 156.557)" fill="#F8F8F8"/>
<path d="M172.094 153.703C173.976 165.238 168.004 175.595 159.032 177.058C150.061 178.522 141.108 170.599 139.226 159.064C137.345 147.529 143.316 137.172 152.288 135.709C161.26 134.245 170.213 142.168 172.094 153.703Z" fill="url(#paint0_linear_6_2)" stroke="url(#paint1_linear_6_2)" stroke-width="1.07426"/>
<path d="M176.208 128.392C177.249 127.748 178.163 126.944 179.005 125.927C178.603 127.29 178.171 128.403 177.683 129.321C176.586 131.384 175.206 132.468 173.098 133.162L169.843 134.234L173.127 135.212C177.266 136.445 180.571 136.328 183.86 135.035C185.788 134.277 187.69 133.121 189.735 131.652C188.958 132.798 188.195 133.736 187.398 134.538C185.735 136.212 183.87 137.353 181.27 138.546L179.825 139.21L180.98 140.303L184.438 143.576C172.691 138.812 163.194 136.416 154.404 137.537C145.007 138.735 136.609 143.92 127.229 154.01L128.053 148.173L128.432 145.487L126.317 147.185L122.565 150.197C123.014 149.458 123.451 148.763 123.868 148.124C125.124 146.2 126.157 144.845 126.763 144.246C135.165 135.941 146.647 129.937 165.829 131.179L165.945 131.187L166.06 131.169C170.401 130.509 173.631 129.988 176.208 128.392Z" fill="#6A5032" stroke="#6A5032" stroke-width="2.14851" stroke-linecap="round"/>
<path d="M160.409 162.14C160.949 165.455 159.137 168.334 156.589 168.749C154.04 169.165 151.407 167.011 150.867 163.696C150.326 160.381 152.138 157.502 154.687 157.087C157.235 156.671 159.868 158.825 160.409 162.14Z" fill="#FFD4A0" stroke="url(#paint2_linear_6_2)" stroke-width="1.07426"/>
<path d="M165.056 146.144C165.406 148.288 164.23 150.088 162.657 150.344C161.085 150.601 159.398 149.268 159.048 147.123C158.698 144.979 159.874 143.179 161.447 142.923C163.019 142.666 164.706 143.999 165.056 146.144Z" fill="#FFD4A0" stroke="url(#paint3_linear_6_2)" stroke-width="1.07426"/>
<path d="M26.5457 165.371C29.9185 171.004 35.0986 175.476 45.5457 178.871C41.5457 170.371 39.209 168.04 26.5457 165.371Z" fill="#6A5032" stroke="#6A5032" stroke-width="0.730594" stroke-linecap="round"/>
<path d="M33.7899 180.477C36.1484 176.962 38.1633 176.101 41.4726 175.597C40.0615 175.037 39.2943 174.672 37.9674 173.935C35.7875 175.379 33.7656 177.774 33.7899 180.477Z" fill="#6A5032" stroke="#6A5032" stroke-width="0.914841" stroke-linecap="round"/>
<path d="M27.6637 174.905C29.8034 171.716 31.6313 170.936 34.6335 170.478C33.3533 169.97 32.6573 169.639 31.4535 168.97C29.4759 170.28 27.6417 172.453 27.6637 174.905Z" fill="#6A5032" stroke="#6A5032" stroke-width="0.829943" stroke-linecap="round"/>
<ellipse rx="26.8564" ry="21.4851" transform="matrix(-0.986958 -0.160975 -0.160975 0.986958 51.9456 156.557)" fill="#F8F8F8"/>
<path d="M34.4515 153.703C32.5701 165.238 38.5413 175.595 47.5132 177.058C56.4851 178.522 65.4378 170.599 67.3192 159.064C69.2005 147.529 63.2293 137.172 54.2575 135.709C45.2856 134.245 36.3329 142.168 34.4515 153.703Z" fill="url(#paint4_linear_6_2)" stroke="url(#paint5_linear_6_2)" stroke-width="1.07426"/>
<path d="M30.3373 128.392C29.2971 127.748 28.3828 126.944 27.5406 125.927C27.9428 127.29 28.3751 128.403 28.8631 129.321C29.9594 131.384 31.3396 132.468 33.4476 133.162L36.7023 134.234L33.4183 135.212C29.2796 136.445 25.9747 136.328 22.6861 135.035C20.7575 134.277 18.8553 133.121 16.8107 131.652C17.5881 132.798 18.3508 133.736 19.1476 134.538C20.8105 136.212 22.6757 137.353 25.2757 138.546L26.7206 139.21L25.5658 140.303L22.108 143.576C33.8547 138.812 43.3518 136.416 52.1421 137.537C61.5387 138.735 69.9368 143.92 79.3164 154.01L78.4929 148.173L78.114 145.487L80.2292 147.185L83.9805 150.197C83.532 149.458 83.095 148.763 82.6778 148.124C81.4219 146.2 80.3889 144.845 79.7829 144.246C71.3804 135.941 59.8982 129.937 40.7166 131.179L40.6006 131.187L40.4857 131.169C36.1443 130.509 32.915 129.988 30.3373 128.392Z" fill="#6A5032" stroke="#6A5032" stroke-width="2.14851" stroke-linecap="round"/>
<path d="M46.1369 162.14C45.5962 165.455 47.4083 168.334 49.9569 168.749C52.5055 169.165 55.1384 167.011 55.6791 163.696C56.2199 160.381 54.4078 157.502 51.8591 157.087C49.3105 156.671 46.6776 158.825 46.1369 162.14Z" fill="#FFD4A0" stroke="url(#paint6_linear_6_2)" stroke-width="1.07426"/>
<path d="M41.4896 146.144C41.1399 148.288 42.3157 150.088 43.8884 150.344C45.461 150.601 47.1479 149.268 47.4976 147.123C47.8473 144.979 46.6715 143.179 45.0989 142.923C43.5262 142.666 41.8393 143.999 41.4896 146.144Z" fill="#FFD4A0" stroke="url(#paint7_linear_6_2)" stroke-width="1.07426"/>
<path d="M86.9999 190.371C98.8528 195.704 106.147 195.704 118 190.371" stroke="#6A5032" stroke-width="2.14851" stroke-linecap="round"/>
<ellipse cx="103" cy="71.5" rx="15" ry="9.5" fill="#F8A340"/>
<ellipse rx="28.7497" ry="15.1114" transform="matrix(-0.922369 0.386309 0.386309 0.922369 60.3554 96.0446)" fill="#FFD4A0"/>
<path d="M90.4547 26.2827L88.3666 23.8279L83.457 28.0041L85.5451 30.4589L90.4547 26.2827ZM99.2867 71.1188C99.4236 72.8934 100.973 74.221 102.748 74.084C104.522 73.9471 105.85 72.3974 105.713 70.6228L99.2867 71.1188ZM85.5451 30.4589C96.1472 42.9229 98.159 56.5055 99.2867 71.1188L105.713 70.6228C104.568 55.7881 102.465 40.4018 90.4547 26.2827L85.5451 30.4589Z" fill="#6A5032"/>
<path d="M124.48 22.8683C133.682 20.6533 137.338 17.5026 142.104 9.6568C146.157 36.2254 131.939 67.5838 101.521 45.9221C102.953 32.9449 111.767 23.5342 124.48 22.8683Z" fill="url(#paint8_linear_6_2)" stroke="url(#paint9_linear_6_2)" stroke-width="0.730594" stroke-linecap="round"/>
<circle cx="58.4999" cy="188.871" r="1.5" fill="#FFD3A0"/>
<circle cx="74.4999" cy="188.871" r="1.5" fill="#FFD3A0"/>
<circle cx="66.4999" cy="183.871" r="1.5" fill="#FFD3A0"/>
<circle cx="131.5" cy="188.871" r="1.5" fill="#FFD3A0"/>
<circle cx="147.5" cy="188.871" r="1.5" fill="#FFD3A0"/>
<circle cx="139.5" cy="183.871" r="1.5" fill="#FFD3A0"/>
<defs>
<linearGradient id="paint0_linear_6_2" x1="152.202" y1="135.179" x2="159.119" y2="177.589" gradientUnits="userSpaceOnUse">
<stop stop-color="#F8A340"/>
<stop offset="1" stop-color="#FFD4A0"/>
</linearGradient>
<linearGradient id="paint1_linear_6_2" x1="152.202" y1="135.179" x2="159.119" y2="177.589" gradientUnits="userSpaceOnUse">
<stop stop-color="#6A5032"/>
<stop offset="1" stop-color="#FFBD70"/>
</linearGradient>
<linearGradient id="paint2_linear_6_2" x1="154.6" y1="156.557" x2="156.675" y2="169.28" gradientUnits="userSpaceOnUse">
<stop stop-color="#F8A340"/>
<stop offset="1" stop-color="#F8A340"/>
</linearGradient>
<linearGradient id="paint3_linear_6_2" x1="161.36" y1="142.393" x2="162.744" y2="150.874" gradientUnits="userSpaceOnUse">
<stop stop-color="#F8A340"/>
<stop offset="1" stop-color="#F8A340"/>
</linearGradient>
<linearGradient id="paint4_linear_6_2" x1="54.3439" y1="135.179" x2="47.4268" y2="177.589" gradientUnits="userSpaceOnUse">
<stop stop-color="#F8A340"/>
<stop offset="1" stop-color="#FFD4A0"/>
</linearGradient>
<linearGradient id="paint5_linear_6_2" x1="54.3439" y1="135.179" x2="47.4268" y2="177.589" gradientUnits="userSpaceOnUse">
<stop stop-color="#6A5032"/>
<stop offset="1" stop-color="#FFBD70"/>
</linearGradient>
<linearGradient id="paint6_linear_6_2" x1="51.9456" y1="156.557" x2="49.8705" y2="169.28" gradientUnits="userSpaceOnUse">
<stop stop-color="#F8A340"/>
<stop offset="1" stop-color="#F8A340"/>
</linearGradient>
<linearGradient id="paint7_linear_6_2" x1="45.1853" y1="142.393" x2="43.8019" y2="150.874" gradientUnits="userSpaceOnUse">
<stop stop-color="#F8A340"/>
<stop offset="1" stop-color="#F8A340"/>
</linearGradient>
<linearGradient id="paint8_linear_6_2" x1="139.781" y1="8.22494" x2="112.348" y2="52.7441" gradientUnits="userSpaceOnUse">
<stop stop-color="#5E7B57"/>
<stop offset="1" stop-color="#85B678"/>
</linearGradient>
<linearGradient id="paint9_linear_6_2" x1="139.781" y1="8.22494" x2="112.348" y2="52.7441" gradientUnits="userSpaceOnUse">
<stop stop-color="#5E7B57"/>
<stop offset="1" stop-color="#85B678"/>
</linearGradient>
</defs>
</svg>
