<svg width="192" height="207" viewBox="0 0 192 207" fill="none" xmlns="http://www.w3.org/2000/svg">
<path d="M191.95 113.931C191.95 164.984 146.812 192.455 98.4504 206.371C51.163 191.461 4.9504 164.984 4.9504 113.931C4.9504 62.878 46.8118 41.3708 98.4504 41.3708C150.089 41.3708 191.95 62.878 191.95 113.931Z" fill="#FF7E86"/>
<path d="M191.95 113.931C191.95 164.984 146.812 192.455 98.4504 206.371C51.163 191.461 4.9504 164.984 4.9504 113.931C4.9504 62.878 46.8118 41.3708 98.4504 41.3708C150.089 41.3708 191.95 62.878 191.95 113.931Z" fill="#FF7E86"/>
<path d="M191.95 113.931C191.95 164.984 146.812 192.455 98.4504 206.371C51.163 191.461 4.9504 164.984 4.9504 113.931C4.9504 62.878 46.8118 41.3708 98.4504 41.3708C150.089 41.3708 191.95 62.878 191.95 113.931Z" fill="#ED666E"/>
<path d="M191.95 114.256C191.95 158.502 146.812 182.311 98.4504 194.371C51.163 181.449 4.9504 158.502 4.9504 114.256C4.9504 70.0103 46.8118 51.3708 98.4504 51.3708C150.089 51.3708 191.95 70.0103 191.95 114.256Z" fill="#FF7E86"/>
<path d="M191.95 114.256C191.95 158.502 146.812 182.311 98.4504 194.371C51.163 181.449 4.9504 158.502 4.9504 114.256C4.9504 70.0103 46.8118 51.3708 98.4504 51.3708C150.089 51.3708 191.95 70.0103 191.95 114.256Z" fill="#FF7E86"/>
<path d="M191.95 114.256C191.95 158.502 146.812 182.311 98.4504 194.371C51.163 181.449 4.9504 158.502 4.9504 114.256C4.9504 70.0103 46.8118 51.3708 98.4504 51.3708C150.089 51.3708 191.95 70.0103 191.95 114.256Z" fill="#FF888F"/>
<ellipse rx="18.5235" ry="11.0841" transform="matrix(0.970554 -0.240884 0.277885 0.960614 161.711 149.731)" fill="#FFC1C9"/>
<ellipse rx="18.5235" ry="11.0841" transform="matrix(-0.970554 -0.240884 -0.277885 0.960614 35.8004 149.731)" fill="#FFC1C9"/>
<ellipse rx="24.1808" ry="19.3446" transform="matrix(-0.993213 -0.11631 -0.11631 0.993213 45.4469 125.242)" fill="#F8F8F8"/>
<path d="M29.5959 123.386C28.372 133.837 34.1633 142.911 42.2925 143.863C50.4217 144.815 58.1527 137.325 59.3766 126.873C60.6005 116.422 54.8092 107.349 46.68 106.397C38.5507 105.445 30.8198 112.934 29.5959 123.386Z" fill="url(#paint0_linear_3_73)" stroke="url(#paint1_linear_3_73)" stroke-width="0.967231"/>
<path d="M24.8677 100.787C23.906 100.249 23.051 99.5633 22.2522 98.6828C22.6693 99.8927 23.1033 100.876 23.5795 101.682C24.6494 103.493 25.9348 104.412 27.859 104.951L30.83 105.783L27.9159 106.796C24.2434 108.073 21.266 108.102 18.2556 107.073C16.4901 106.469 14.7322 105.506 12.8336 104.268C13.5793 105.267 14.3034 106.079 15.0526 106.769C16.6163 108.207 18.3403 109.157 20.7273 110.126L22.0539 110.664L21.0596 111.694L18.0823 114.778C28.4545 110.016 36.8995 107.475 44.8515 108.127C53.3519 108.823 61.1162 113.146 69.9623 121.841L68.9847 116.624L68.5348 114.223L70.5063 115.665L74.0027 118.222C73.5692 117.575 73.148 116.968 72.7469 116.41C71.5391 114.73 70.5549 113.553 69.9856 113.039C62.0907 105.91 51.5192 100.977 34.3167 102.872L34.2126 102.884L34.1085 102.873C30.1769 102.455 27.2511 102.118 24.8677 100.787Z" fill="#6A3243" stroke="#6A3243" stroke-width="1.93446" stroke-linecap="round"/>
<path d="M40.4489 130.5C40.0972 133.504 41.8439 136.019 44.1532 136.29C46.4624 136.56 48.7432 134.516 49.0949 131.512C49.4467 128.509 47.6999 125.993 45.3907 125.722C43.0814 125.452 40.8007 127.496 40.4489 130.5Z" fill="#FFC1C9" stroke="url(#paint2_linear_3_73)" stroke-width="0.967231"/>
<path d="M35.6195 116.301C35.392 118.243 36.5226 119.815 37.9476 119.982C39.3726 120.149 40.8357 118.881 41.0632 116.938C41.2907 114.995 40.1601 113.424 38.7351 113.257C37.3101 113.09 35.847 114.358 35.6195 116.301Z" fill="#FFC1C9" stroke="url(#paint3_linear_3_73)" stroke-width="0.967231"/>
<path d="M69.8267 101.094C65.5987 105.134 63.0858 106.529 58.0099 105.391L62.2437 108.677C65.6144 107.377 69.8267 104.316 69.8267 101.094Z" fill="#6A3243" stroke="#6A3243" stroke-width="1.26383" stroke-linecap="round"/>
<ellipse rx="24.1808" ry="19.3446" transform="matrix(-0.999814 0.0192761 0.0192761 0.999814 152.255 124.653)" fill="#F8F8F8"/>
<path d="M136.298 124.96C136.501 135.481 143.468 143.686 151.651 143.529C159.834 143.371 166.48 134.903 166.277 124.382C166.074 113.861 159.107 105.656 150.924 105.814C142.741 105.971 136.095 114.439 136.298 124.96Z" fill="url(#paint4_linear_3_73)" stroke="url(#paint5_linear_3_73)" stroke-width="0.967231"/>
<path d="M128.553 103.209C127.527 102.807 126.587 102.243 125.676 101.479C126.254 102.621 126.817 103.537 127.398 104.271C128.703 105.92 130.101 106.657 132.081 106.93L135.137 107.352L132.387 108.751C128.921 110.513 125.975 110.945 122.853 110.333C121.022 109.974 119.15 109.258 117.101 108.289C117.975 109.178 118.803 109.884 119.638 110.466C121.382 111.679 123.219 112.387 125.715 113.023L127.103 113.377L126.257 114.532L123.725 117.991C133.357 111.868 141.38 108.207 149.347 107.775C157.863 107.314 166.141 110.546 176.083 117.962L174.408 112.926L173.637 110.608L175.786 111.77L179.596 113.829C179.079 113.247 178.58 112.703 178.107 112.204C176.683 110.704 175.548 109.671 174.914 109.238C166.127 103.245 154.985 99.7881 138.197 103.996L138.096 104.022L137.991 104.025C134.039 104.143 131.095 104.205 128.553 103.209Z" fill="#6A3243" stroke="#6A3243" stroke-width="1.93446" stroke-linecap="round"/>
<path d="M148.015 130.539C148.073 133.562 150.144 135.818 152.469 135.774C154.793 135.729 156.776 133.395 156.718 130.371C156.66 127.347 154.588 125.091 152.264 125.136C149.939 125.181 147.956 127.515 148.015 130.539Z" fill="#FFC1C9" stroke="url(#paint6_linear_3_73)" stroke-width="0.967231"/>
<path d="M141.307 117.124C141.344 119.08 142.677 120.484 144.112 120.456C145.546 120.428 146.824 118.974 146.787 117.019C146.749 115.063 145.416 113.659 143.981 113.687C142.547 113.714 141.269 115.169 141.307 117.124Z" fill="#FFC1C9" stroke="url(#paint7_linear_3_73)" stroke-width="0.967231"/>
<path d="M180.698 101.094C176.47 105.134 173.957 106.529 168.881 105.391L173.115 108.677C176.486 107.377 180.698 104.316 180.698 101.094Z" fill="#6A3243" stroke="#6A3243" stroke-width="1.26383" stroke-linecap="round"/>
<path d="M84.9504 164.371C95.1428 169.605 101.257 169.617 110.95 164.371" stroke="#6A3243" stroke-width="2.14851" stroke-linecap="round"/>
<path d="M42.9504 58.3708C54.4512 50.0553 66.7136 46.671 82.9104 42.3708L116.39 43.3708C128.27 45.3708 139.767 48.9665 150.95 58.3708C140.407 56.4613 130.175 53.6849 119.63 56.3708L125.03 91.3708L99.1104 66.3708L73.1904 91.3708L81.8304 56.3708C67.4881 53.7522 59.0132 54.0368 42.9504 58.3708Z" fill="#ED666E" stroke="#ED666E" stroke-width="2.14851" stroke-linecap="round"/>
<path d="M113.946 42.1876C131.134 51.1431 149.396 65.0738 142.95 90.945L120.391 72.5366L97.8316 54.1282V34.2272C119.16 33.9479 123.08 27.2881 142.95 14.3262C135.431 29.252 126.837 36.2173 113.946 42.1876Z" fill="url(#paint8_linear_3_73)" stroke="url(#paint9_linear_3_73)" stroke-width="2.14851" stroke-linecap="round"/>
<path d="M80.8943 42.1876C63.7063 51.1431 45.4439 65.0738 51.8894 90.945L74.4488 72.5366L97.0083 54.1282V34.2272C75.6796 33.9479 71.7601 27.2881 51.8894 14.3262C59.4092 29.252 68.0033 36.2173 80.8943 42.1876Z" fill="url(#paint10_linear_3_73)" stroke="url(#paint11_linear_3_73)" stroke-width="2.14851" stroke-linecap="round"/>
<path d="M85.4052 3.28269L83.3171 0.827878L78.4075 5.00408L80.4956 7.45889L85.4052 3.28269ZM94.7372 41.6188C94.8741 43.3934 96.4237 44.721 98.1984 44.584C99.973 44.4471 101.301 42.8974 101.164 41.1228L94.7372 41.6188ZM80.4956 7.45889C86.0249 13.9592 89.2541 18.9759 91.2709 24.0284C93.2885 29.0827 94.1789 34.3841 94.7372 41.6188L101.164 41.1228C100.586 33.6335 99.629 27.5807 97.2572 21.6389C94.8846 15.6952 91.1819 10.0739 85.4052 3.28269L80.4956 7.45889Z" fill="#5E7B57"/>
<circle cx="126.5" cy="164.871" r="1.5" fill="#FFC1C9"/>
<circle cx="142.5" cy="164.871" r="1.5" fill="#FFC1C9"/>
<circle cx="134.5" cy="159.871" r="1.5" fill="#FFC1C9"/>
<circle cx="53.4999" cy="164.871" r="1.5" fill="#FFC1C9"/>
<circle cx="69.4999" cy="164.871" r="1.5" fill="#FFC1C9"/>
<circle cx="61.4999" cy="159.871" r="1.5" fill="#FFC1C9"/>
<defs>
<linearGradient id="paint0_linear_3_73" x1="46.7362" y1="105.916" x2="42.2363" y2="144.343" gradientUnits="userSpaceOnUse">
<stop stop-color="#ED666E"/>
<stop offset="1" stop-color="#FF9BA1"/>
</linearGradient>
<linearGradient id="paint1_linear_3_73" x1="46.7362" y1="105.916" x2="42.2363" y2="144.343" gradientUnits="userSpaceOnUse">
<stop stop-color="#6A3243"/>
<stop offset="1" stop-color="#FF9BA1"/>
</linearGradient>
<linearGradient id="paint2_linear_3_73" x1="45.4469" y1="125.242" x2="44.0969" y2="136.77" gradientUnits="userSpaceOnUse">
<stop stop-color="#ED666E"/>
<stop offset="1" stop-color="#ED666E" stop-opacity="0"/>
</linearGradient>
<linearGradient id="paint3_linear_3_73" x1="38.7913" y1="112.777" x2="37.8914" y2="120.462" gradientUnits="userSpaceOnUse">
<stop stop-color="#ED666E"/>
<stop offset="1" stop-color="#ED666E" stop-opacity="0"/>
</linearGradient>
<linearGradient id="paint4_linear_3_73" x1="150.915" y1="105.33" x2="151.66" y2="144.012" gradientUnits="userSpaceOnUse">
<stop stop-color="#ED666E"/>
<stop offset="1" stop-color="#FF9BA1"/>
</linearGradient>
<linearGradient id="paint5_linear_3_73" x1="150.915" y1="105.33" x2="151.66" y2="144.012" gradientUnits="userSpaceOnUse">
<stop stop-color="#6A3243"/>
<stop offset="1" stop-color="#FF9BA1"/>
</linearGradient>
<linearGradient id="paint6_linear_3_73" x1="152.254" y1="124.652" x2="152.478" y2="136.257" gradientUnits="userSpaceOnUse">
<stop stop-color="#ED666E"/>
<stop offset="1" stop-color="#ED666E" stop-opacity="0"/>
</linearGradient>
<linearGradient id="paint7_linear_3_73" x1="143.972" y1="113.203" x2="144.121" y2="120.94" gradientUnits="userSpaceOnUse">
<stop stop-color="#ED666E"/>
<stop offset="1" stop-color="#ED666E" stop-opacity="0"/>
</linearGradient>
<linearGradient id="paint8_linear_3_73" x1="121.054" y1="14.3262" x2="121.054" y2="90.945" gradientUnits="userSpaceOnUse">
<stop stop-color="#5E7B57"/>
<stop offset="1" stop-color="#85B678"/>
</linearGradient>
<linearGradient id="paint9_linear_3_73" x1="121.054" y1="14.3262" x2="121.054" y2="90.945" gradientUnits="userSpaceOnUse">
<stop stop-color="#5E7B57"/>
<stop offset="1" stop-color="#85B678"/>
</linearGradient>
<linearGradient id="paint10_linear_3_73" x1="73.7863" y1="14.3262" x2="73.7863" y2="90.945" gradientUnits="userSpaceOnUse">
<stop stop-color="#5E7B57"/>
<stop offset="1" stop-color="#85B678"/>
</linearGradient>
<linearGradient id="paint11_linear_3_73" x1="73.7863" y1="14.3262" x2="73.7863" y2="90.945" gradientUnits="userSpaceOnUse">
<stop stop-color="#5E7B57"/>
<stop offset="1" stop-color="#85B678"/>
</linearGradient>
</defs>
</svg>
